# This file uses centimeters as units for non-parametric coordinates.

mtllib floor.mtl
g default
v -12.708988 -0.196379 8.416075
v 12.708988 -0.196379 8.416075
v -12.708988 0.196379 8.416075
v 12.708988 0.196379 8.416075
v -12.708988 0.196379 -8.416075
v 12.708988 0.196379 -8.416075
v -12.708988 -0.196379 -8.416075
v 12.708988 -0.196379 -8.416075
vt 0.163103 0.270908
vt 0.628091 0.039534
vt 0.395373 0.271356
vt 0.627643 0.271804
vt 0.394925 0.503626
vt 0.627195 0.504074
vt 0.394476 0.735896
vt 0.626746 0.736344
vt 0.394028 0.968166
vt 0.626298 0.968614
vt 0.859465 0.504522
vt 0.162655 0.503178
vt 0.859913 0.272252
vt 0.395821 0.039086
vn 0.000000 0.000000 1.000000
vn 0.000000 0.000000 1.000000
vn 0.000000 0.000000 1.000000
vn 0.000000 0.000000 1.000000
vn 0.000000 1.000000 0.000000
vn 0.000000 1.000000 0.000000
vn 0.000000 1.000000 0.000000
vn 0.000000 1.000000 0.000000
vn 0.000000 0.000000 -1.000000
vn 0.000000 0.000000 -1.000000
vn 0.000000 0.000000 -1.000000
vn 0.000000 0.000000 -1.000000
vn 0.000000 -1.000000 0.000000
vn 0.000000 -1.000000 0.000000
vn 0.000000 -1.000000 0.000000
vn 0.000000 -1.000000 0.000000
vn 1.000000 0.000000 0.000000
vn 1.000000 0.000000 0.000000
vn 1.000000 0.000000 0.000000
vn 1.000000 0.000000 0.000000
vn -1.000000 0.000000 0.000000
vn -1.000000 0.000000 0.000000
vn -1.000000 0.000000 0.000000
vn -1.000000 0.000000 0.000000
s off
g pCube1
usemtl aiStandardSurface2SG
f 1/14/1 2/2/2 4/4/3 3/3/4
f 3/3/5 4/4/6 6/6/7 5/5/8
f 5/5/9 6/6/10 8/8/11 7/7/12
f 7/7/13 8/8/14 2/10/15 1/9/16
f 2/13/17 8/11/18 6/6/19 4/4/20
f 7/12/21 1/1/22 3/3/23 5/5/24
