# This file uses centimeters as units for non-parametric coordinates.

mtllib botBun.mtl
g default
v 2.770744 0.000000 -1.599690
v 1.599690 0.000000 -2.770744
v 0.000000 0.000000 -3.199380
v -1.599690 0.000000 -2.770744
v -2.770744 0.000000 -1.599690
v -3.199380 0.000000 0.000000
v -2.770744 0.000000 1.599690
v -1.599690 0.000000 2.770744
v 0.000000 0.000000 3.199380
v 1.599690 0.000000 2.770744
v 2.770744 0.000000 1.599690
v 3.199380 0.000000 0.000000
v 3.376201 1.621629 -1.949250
v 1.949250 1.621629 -3.376201
v 0.000000 1.621629 -3.898501
v -1.949250 1.621629 -3.376201
v -3.376201 1.621629 -1.949250
v -3.898501 1.621629 0.000000
v -3.376201 1.621629 1.949250
v -1.949250 1.621629 3.376201
v 0.000000 1.621629 3.898501
v 1.949250 1.621629 3.376201
v 3.376201 1.621629 1.949250
v 3.898501 1.621629 0.000000
v 0.000000 0.000000 0.000000
v 0.000000 1.621629 0.000000
v 3.376201 1.211626 -1.949250
v 1.949250 1.211626 -3.376201
v 0.000000 1.211626 -3.898501
v -1.949250 1.211626 -3.376201
v -3.376201 1.211626 -1.949250
v -3.898501 1.211626 0.000000
v -3.376201 1.211626 1.949250
v -1.949250 1.211626 3.376201
v 0.000000 1.211626 3.898501
v 1.949250 1.211626 3.376201
v 3.376201 1.211626 1.949250
v 3.898501 1.211626 0.000000
v 3.174645 0.422732 -1.832882
v 1.832882 0.422732 -3.174645
v 0.000000 0.422732 -3.665765
v -1.832882 0.422732 -3.174645
v -3.174645 0.422732 -1.832882
v -3.665765 0.422732 0.000000
v -3.174645 0.422732 1.832882
v -1.832882 0.422732 3.174645
v 0.000000 0.422732 3.665765
v 1.832882 0.422732 3.174645
v 3.174645 0.422732 1.832882
v 3.665765 0.422732 0.000000
v 3.275423 0.817179 -1.891066
v 3.782133 0.817179 0.000000
v 3.275423 0.817179 1.891066
v 1.891066 0.817179 3.275423
v 0.000000 0.817179 3.782133
v -1.891066 0.817179 3.275423
v -3.275423 0.817179 1.891066
v -3.782133 0.817179 0.000000
v -3.275423 0.817179 -1.891066
v -1.891066 0.817179 -3.275423
v 0.000000 0.817179 -3.782133
v 1.891066 0.817179 -3.275423
v 3.376201 1.416628 -1.949250
v 3.898501 1.416628 0.000000
v 3.376201 1.416628 1.949250
v 1.949250 1.416628 3.376201
v 0.000000 1.416628 3.898501
v -1.949250 1.416628 3.376201
v -3.376201 1.416628 1.949250
v -3.898501 1.416628 0.000000
v -3.376201 1.416628 -1.949250
v -1.949250 1.416628 -3.376201
v 0.000000 1.416628 -3.898501
v 1.949250 1.416628 -3.376201
vt 0.374522 0.697984
vt 0.302016 0.625478
vt 0.202972 0.598939
vt 0.103927 0.625478
vt 0.031422 0.697984
vt 0.004883 0.797028
vt 0.031422 0.896073
vt 0.103927 0.968578
vt 0.202972 0.995117
vt 0.302016 0.968578
vt 0.374522 0.896073
vt 0.401061 0.797028
vt 0.079467 0.093299
vt 0.213797 0.009914
vt 0.371798 0.004883
vt 0.511123 0.079515
vt 0.594461 0.213790
vt 0.599509 0.371732
vt 0.524922 0.511038
vt 0.390686 0.594397
vt 0.232754 0.599488
vt 0.093418 0.524939
vt 0.010005 0.390700
vt 0.004883 0.232710
vt 0.221847 0.226490
vt 0.270441 0.196450
vt 0.327550 0.194735
vt 0.377872 0.221809
vt 0.407928 0.270417
vt 0.409678 0.327516
vt 0.382567 0.377812
vt 0.333965 0.407841
vt 0.276863 0.409558
vt 0.226551 0.382496
vt 0.196510 0.333903
vt 0.194788 0.276802
vt 0.202972 0.789105
vt 0.302228 0.302141
vt 0.185819 0.193617
vt 0.255674 0.149973
vt 0.337997 0.147108
vt 0.410726 0.185787
vt 0.454382 0.255645
vt 0.457291 0.337984
vt 0.418573 0.410706
vt 0.348711 0.454329
vt 0.266397 0.457191
vt 0.193675 0.418516
vt 0.150027 0.348662
vt 0.147151 0.266344
vt 0.125553 0.138151
vt 0.231240 0.071808
vt 0.355937 0.067205
vt 0.466222 0.125562
vt 0.532553 0.231231
vt 0.537168 0.355902
vt 0.478827 0.466176
vt 0.373171 0.532504
vt 0.248509 0.537125
vt 0.138228 0.478801
vt 0.071871 0.373146
vt 0.067226 0.248458
vt 0.157068 0.167230
vt 0.109059 0.257871
vt 0.112804 0.360374
vt 0.167293 0.447271
vt 0.257922 0.495285
vt 0.360413 0.491560
vt 0.447317 0.437093
vt 0.495350 0.346455
vt 0.491606 0.243952
vt 0.437120 0.157050
vt 0.346484 0.109024
vt 0.243976 0.112748
vt 0.202654 0.209157
vt 0.169500 0.271386
vt 0.171902 0.341855
vt 0.209215 0.401685
vt 0.271442 0.434844
vt 0.341910 0.432451
vt 0.401744 0.395154
vt 0.434964 0.332990
vt 0.432514 0.262460
vt 0.395193 0.202619
vt 0.332959 0.169452
vt 0.262484 0.171846
vn 0.695501 -0.180432 -0.695502
vn 0.695501 -0.180432 -0.695502
vn 0.707107 0.000000 -0.707107
vn 0.707107 0.000000 -0.707107
vn 0.254571 -0.180432 -0.950073
vn 0.254571 -0.180432 -0.950073
vn 0.258819 0.000000 -0.965926
vn 0.258819 0.000000 -0.965926
vn -0.254571 -0.180432 -0.950073
vn -0.254571 -0.180432 -0.950073
vn -0.258819 0.000000 -0.965926
vn -0.258819 0.000000 -0.965926
vn -0.695501 -0.180432 -0.695501
vn -0.695501 -0.180432 -0.695501
vn -0.707107 0.000000 -0.707107
vn -0.707107 0.000000 -0.707107
vn -0.950073 -0.180432 -0.254571
vn -0.950073 -0.180432 -0.254571
vn -0.965926 0.000000 -0.258819
vn -0.965926 0.000000 -0.258819
vn -0.950073 -0.180432 0.254571
vn -0.950073 -0.180432 0.254571
vn -0.965926 0.000000 0.258819
vn -0.965926 0.000000 0.258819
vn -0.695501 -0.180432 0.695502
vn -0.695501 -0.180432 0.695502
vn -0.707107 0.000000 0.707107
vn -0.707107 0.000000 0.707107
vn -0.254571 -0.180432 0.950073
vn -0.254571 -0.180432 0.950073
vn -0.258819 0.000000 0.965926
vn -0.258819 0.000000 0.965926
vn 0.254571 -0.180432 0.950073
vn 0.254571 -0.180432 0.950073
vn 0.258819 0.000000 0.965926
vn 0.258819 0.000000 0.965926
vn 0.695501 -0.180432 0.695501
vn 0.695501 -0.180432 0.695501
vn 0.707107 0.000000 0.707107
vn 0.707107 0.000000 0.707107
vn 0.950073 -0.180432 0.254571
vn 0.950073 -0.180432 0.254571
vn 0.965926 0.000000 0.258819
vn 0.965926 0.000000 0.258819
vn 0.950073 -0.180432 -0.254571
vn 0.950073 -0.180432 -0.254571
vn 0.965926 0.000000 -0.258819
vn 0.965926 0.000000 -0.258819
vn 0.000000 -1.000000 0.000000
vn 0.000000 -1.000000 0.000000
vn 0.000000 -1.000000 0.000000
vn 0.000000 -1.000000 0.000000
vn 0.000000 -1.000000 0.000000
vn 0.000000 -1.000000 0.000000
vn 0.000000 -1.000000 0.000000
vn 0.000000 -1.000000 0.000000
vn 0.000000 -1.000000 0.000000
vn 0.000000 -1.000000 0.000000
vn 0.000000 -1.000000 0.000000
vn 0.000000 -1.000000 0.000000
vn 0.000000 -1.000000 0.000000
vn 0.000000 1.000000 0.000000
vn 0.000000 1.000000 0.000000
vn 0.000000 1.000000 0.000000
vn 0.000000 1.000000 0.000000
vn 0.000000 1.000000 0.000000
vn 0.000000 1.000000 0.000000
vn 0.000000 1.000000 0.000000
vn 0.000000 1.000000 0.000000
vn 0.000000 1.000000 0.000000
vn 0.000000 1.000000 0.000000
vn 0.000000 1.000000 0.000000
vn 0.000000 1.000000 0.000000
vn 0.000000 1.000000 0.000000
vn 0.595966 -0.538191 -0.595966
vn 0.595966 -0.538191 -0.595966
vn 0.680035 -0.274053 -0.680035
vn 0.680035 -0.274053 -0.680035
vn 0.218139 -0.538191 -0.814105
vn 0.218139 -0.538191 -0.814105
vn 0.248910 -0.274053 -0.928945
vn 0.248910 -0.274053 -0.928945
vn -0.218139 -0.538191 -0.814105
vn -0.218139 -0.538191 -0.814105
vn -0.248910 -0.274053 -0.928945
vn -0.248910 -0.274053 -0.928945
vn -0.595966 -0.538191 -0.595966
vn -0.595966 -0.538191 -0.595966
vn -0.680035 -0.274053 -0.680035
vn -0.680035 -0.274053 -0.680035
vn -0.814104 -0.538191 -0.218139
vn -0.814105 -0.538191 -0.218139
vn -0.928945 -0.274053 -0.248910
vn -0.928945 -0.274053 -0.248910
vn -0.814105 -0.538191 0.218139
vn -0.814105 -0.538191 0.218139
vn -0.928945 -0.274053 0.248910
vn -0.928945 -0.274053 0.248910
vn -0.595966 -0.538191 0.595966
vn -0.595966 -0.538191 0.595966
vn -0.680035 -0.274053 0.680035
vn -0.680035 -0.274053 0.680035
vn -0.218139 -0.538191 0.814105
vn -0.218139 -0.538191 0.814105
vn -0.248910 -0.274053 0.928945
vn -0.248910 -0.274053 0.928945
vn 0.218139 -0.538191 0.814105
vn 0.218139 -0.538191 0.814105
vn 0.248910 -0.274053 0.928945
vn 0.248910 -0.274053 0.928945
vn 0.595966 -0.538191 0.595966
vn 0.595966 -0.538191 0.595966
vn 0.680035 -0.274053 0.680035
vn 0.680035 -0.274053 0.680035
vn 0.814104 -0.538191 0.218139
vn 0.814105 -0.538191 0.218139
vn 0.928945 -0.274053 0.248910
vn 0.928945 -0.274053 0.248910
vn 0.814105 -0.538191 -0.218139
vn 0.814105 -0.538191 -0.218139
vn 0.928945 -0.274053 -0.248910
vn 0.928945 -0.274053 -0.248910
vn 0.483860 -0.729219 -0.483860
vn 0.483860 -0.729219 -0.483860
vn 0.177105 -0.729218 -0.660965
vn 0.177105 -0.729218 -0.660965
vn -0.177105 -0.729218 -0.660965
vn -0.177105 -0.729218 -0.660965
vn -0.483860 -0.729218 -0.483860
vn -0.483860 -0.729218 -0.483860
vn -0.660965 -0.729219 -0.177105
vn -0.660965 -0.729219 -0.177105
vn -0.660965 -0.729219 0.177105
vn -0.660965 -0.729219 0.177105
vn -0.483860 -0.729219 0.483860
vn -0.483860 -0.729219 0.483860
vn -0.177105 -0.729218 0.660965
vn -0.177105 -0.729218 0.660965
vn 0.177105 -0.729218 0.660965
vn 0.177105 -0.729218 0.660965
vn 0.483860 -0.729218 0.483860
vn 0.483860 -0.729218 0.483860
vn 0.660965 -0.729219 0.177105
vn 0.660965 -0.729219 0.177105
vn 0.660965 -0.729219 -0.177105
vn 0.660965 -0.729219 -0.177105
vn 0.965926 0.000000 -0.258819
vn 0.965926 0.000000 -0.258819
vn 0.965926 0.000000 0.258819
vn 0.965926 0.000000 0.258819
vn 0.707107 0.000000 0.707107
vn 0.707107 0.000000 0.707107
vn 0.258819 0.000000 0.965926
vn 0.258819 0.000000 0.965926
vn -0.258819 0.000000 0.965926
vn -0.258819 0.000000 0.965926
vn -0.707107 0.000000 0.707107
vn -0.707107 0.000000 0.707107
vn -0.965926 0.000000 0.258819
vn -0.965926 0.000000 0.258819
vn -0.965926 0.000000 -0.258819
vn -0.965926 0.000000 -0.258819
vn -0.707107 0.000000 -0.707107
vn -0.707107 0.000000 -0.707107
vn -0.258819 0.000000 -0.965926
vn -0.258819 0.000000 -0.965926
vn 0.258819 0.000000 -0.965926
vn 0.258819 0.000000 -0.965926
vn 0.707107 0.000000 -0.707107
vn 0.707107 0.000000 -0.707107
s 1
g bunHeel_geo
usemtl aiStandardSurface1SG
f 27/39/1 28/40/2 74/86/3 63/75/4
s 2
f 28/40/5 29/41/6 73/85/7 74/86/8
s 3
f 29/41/9 30/42/10 72/84/11 73/85/12
s 4
f 30/42/13 31/43/14 71/83/15 72/84/16
s 5
f 31/43/17 32/44/18 70/82/19 71/83/20
s 6
f 32/44/21 33/45/22 69/81/23 70/82/24
s 7
f 33/45/25 34/46/26 68/80/27 69/81/28
s 8
f 34/46/29 35/47/30 67/79/31 68/80/32
s 9
f 35/47/33 36/48/34 66/78/35 67/79/36
s 10
f 36/48/37 37/49/38 65/77/39 66/78/40
s 11
f 37/49/41 38/50/42 64/76/43 65/77/44
s 12
f 38/50/45 27/39/46 63/75/47 64/76/48
s 13
f 2/2/49 1/1/50 25/37/51
f 3/3/52 2/2/49 25/37/51
f 4/4/53 3/3/52 25/37/51
f 5/5/54 4/4/53 25/37/51
f 6/6/55 5/5/54 25/37/51
f 7/7/56 6/6/55 25/37/51
f 8/8/57 7/7/56 25/37/51
f 9/9/58 8/8/57 25/37/51
f 10/10/59 9/9/58 25/37/51
f 11/11/60 10/10/59 25/37/51
f 12/12/61 11/11/60 25/37/51
f 1/1/50 12/12/61 25/37/51
s 14
f 13/25/62 14/26/63 26/38/64
f 14/26/63 15/27/65 26/38/64
f 15/27/65 16/28/66 26/38/64
f 16/28/66 17/29/67 26/38/64
f 17/29/67 18/30/68 26/38/64
f 18/30/68 19/31/69 26/38/64
f 19/31/69 20/32/70 26/38/64
f 20/32/70 21/33/71 26/38/64
f 21/33/71 22/34/72 26/38/64
f 22/34/72 23/35/73 26/38/64
f 23/35/73 24/36/74 26/38/64
f 24/36/74 13/25/62 26/38/64
s 1
f 39/51/75 40/52/76 62/74/77 51/63/78
s 2
f 40/52/79 41/53/80 61/73/81 62/74/82
s 3
f 41/53/83 42/54/84 60/72/85 61/73/86
s 4
f 42/54/87 43/55/88 59/71/89 60/72/90
s 5
f 43/55/91 44/56/92 58/70/93 59/71/94
s 6
f 44/56/95 45/57/96 57/69/97 58/70/98
s 7
f 45/57/99 46/58/100 56/68/101 57/69/102
s 8
f 46/58/103 47/59/104 55/67/105 56/68/106
s 9
f 47/59/107 48/60/108 54/66/109 55/67/110
s 10
f 48/60/111 49/61/112 53/65/113 54/66/114
s 11
f 49/61/115 50/62/116 52/64/117 53/65/118
s 12
f 50/62/119 39/51/120 51/63/121 52/64/122
s 1
f 1/13/123 2/14/124 40/52/76 39/51/75
s 2
f 2/14/125 3/15/126 41/53/80 40/52/79
s 3
f 3/15/127 4/16/128 42/54/84 41/53/83
s 4
f 4/16/129 5/17/130 43/55/88 42/54/87
s 5
f 5/17/131 6/18/132 44/56/92 43/55/91
s 6
f 6/18/133 7/19/134 45/57/96 44/56/95
s 7
f 7/19/135 8/20/136 46/58/100 45/57/99
s 8
f 8/20/137 9/21/138 47/59/104 46/58/103
s 9
f 9/21/139 10/22/140 48/60/108 47/59/107
s 10
f 10/22/141 11/23/142 49/61/112 48/60/111
s 11
f 11/23/143 12/24/144 50/62/116 49/61/115
s 12
f 12/24/145 1/13/146 39/51/120 50/62/119
f 52/64/122 51/63/121 27/39/46 38/50/45
s 11
f 53/65/118 52/64/117 38/50/42 37/49/41
s 10
f 54/66/114 53/65/113 37/49/38 36/48/37
s 9
f 55/67/110 54/66/109 36/48/34 35/47/33
s 8
f 56/68/106 55/67/105 35/47/30 34/46/29
s 7
f 57/69/102 56/68/101 34/46/26 33/45/25
s 6
f 58/70/98 57/69/97 33/45/22 32/44/21
s 5
f 59/71/94 58/70/93 32/44/18 31/43/17
s 4
f 60/72/90 59/71/89 31/43/14 30/42/13
s 3
f 61/73/86 60/72/85 30/42/10 29/41/9
s 2
f 62/74/82 61/73/81 29/41/6 28/40/5
s 1
f 51/63/78 62/74/77 28/40/2 27/39/1
s 12
f 64/76/48 63/75/47 13/25/147 24/36/148
s 11
f 65/77/44 64/76/43 24/36/149 23/35/150
s 10
f 66/78/40 65/77/39 23/35/151 22/34/152
s 9
f 67/79/36 66/78/35 22/34/153 21/33/154
s 8
f 68/80/32 67/79/31 21/33/155 20/32/156
s 7
f 69/81/28 68/80/27 20/32/157 19/31/158
s 6
f 70/82/24 69/81/23 19/31/159 18/30/160
s 5
f 71/83/20 70/82/19 18/30/161 17/29/162
s 4
f 72/84/16 71/83/15 17/29/163 16/28/164
s 3
f 73/85/12 72/84/11 16/28/165 15/27/166
s 2
f 74/86/8 73/85/7 15/27/167 14/26/168
s 1
f 63/75/4 74/86/3 14/26/169 13/25/170
