# This file uses centimeters as units for non-parametric coordinates.

mtllib botB.mtl
g default
v 2.770744 0.000000 -1.599690
v 1.599690 0.000000 -2.770744
v 0.000000 0.000000 -3.199380
v -1.599690 0.000000 -2.770744
v -2.770744 0.000000 -1.599690
v -3.199380 0.000000 0.000000
v -2.770744 0.000000 1.599690
v -1.599690 0.000000 2.770744
v 0.000000 0.000000 3.199380
v 1.599690 0.000000 2.770744
v 2.770744 0.000000 1.599690
v 3.199380 0.000000 0.000000
v 3.376201 1.621629 -1.949250
v 1.949250 1.621629 -3.376201
v 0.000000 1.621629 -3.898501
v -1.949250 1.621629 -3.376201
v -3.376201 1.621629 -1.949250
v -3.898501 1.621629 0.000000
v -3.376201 1.621629 1.949250
v -1.949250 1.621629 3.376201
v 0.000000 1.621629 3.898501
v 1.949250 1.621629 3.376201
v 3.376201 1.621629 1.949250
v 3.898501 1.621629 0.000000
v 0.000000 0.000000 0.000000
v 0.000000 1.621629 0.000000
v 3.376201 1.211626 -1.949250
v 1.949250 1.211626 -3.376201
v 0.000000 1.211626 -3.898501
v -1.949250 1.211626 -3.376201
v -3.376201 1.211626 -1.949250
v -3.898501 1.211626 0.000000
v -3.376201 1.211626 1.949250
v -1.949250 1.211626 3.376201
v 0.000000 1.211626 3.898501
v 1.949250 1.211626 3.376201
v 3.376201 1.211626 1.949250
v 3.898501 1.211626 0.000000
v 3.174645 0.422732 -1.832882
v 1.832882 0.422732 -3.174645
v 0.000000 0.422732 -3.665765
v -1.832882 0.422732 -3.174645
v -3.174645 0.422732 -1.832882
v -3.665765 0.422732 0.000000
v -3.174645 0.422732 1.832882
v -1.832882 0.422732 3.174645
v 0.000000 0.422732 3.665765
v 1.832882 0.422732 3.174645
v 3.174645 0.422732 1.832882
v 3.665765 0.422732 0.000000
v 3.275423 0.817179 -1.891066
v 3.782133 0.817179 0.000000
v 3.275423 0.817179 1.891066
v 1.891066 0.817179 3.275423
v 0.000000 0.817179 3.782133
v -1.891066 0.817179 3.275423
v -3.275423 0.817179 1.891066
v -3.782133 0.817179 0.000000
v -3.275423 0.817179 -1.891066
v -1.891066 0.817179 -3.275423
v 0.000000 0.817179 -3.782133
v 1.891066 0.817179 -3.275423
v 3.376201 1.416628 -1.949250
v 3.898501 1.416628 0.000000
v 3.376201 1.416628 1.949250
v 1.949250 1.416628 3.376201
v 0.000000 1.416628 3.898501
v -1.949250 1.416628 3.376201
v -3.376201 1.416628 1.949250
v -3.898501 1.416628 0.000000
v -3.376201 1.416628 -1.949250
v -1.949250 1.416628 -3.376201
v 0.000000 1.416628 -3.898501
v 1.949250 1.416628 -3.376201
vt 0.029352 0.608388
vt 0.010429 0.669712
vt 0.004883 0.669515
vt 0.024647 0.605444
vt 0.024704 0.732282
vt 0.019803 0.734885
vt 0.068351 0.779331
vt 0.065408 0.784036
vt 0.129675 0.798253
vt 0.129479 0.803800
vt 0.192244 0.783978
vt 0.194847 0.788880
vt 0.239293 0.740332
vt 0.243998 0.743275
vt 0.258215 0.679008
vt 0.263762 0.679205
vt 0.243941 0.616439
vt 0.248843 0.613836
vt 0.200295 0.569390
vt 0.203238 0.564685
vt 0.138971 0.550467
vt 0.139168 0.544921
vt 0.076402 0.564741
vt 0.073799 0.559839
vt 0.049390 0.670952
vt 0.062473 0.628942
vt 0.134322 0.674360
vt 0.059065 0.713874
vt 0.088905 0.746209
vt 0.130914 0.759292
vt 0.173837 0.749617
vt 0.206172 0.719777
vt 0.219254 0.677769
vt 0.209580 0.634846
vt 0.179740 0.602511
vt 0.137731 0.589428
vt 0.094809 0.599103
vt 0.615217 0.048116
vt 0.668798 0.013944
vt 0.705773 0.131013
vt 0.732287 0.011141
vt 0.788671 0.040457
vt 0.822843 0.094038
vt 0.825646 0.157527
vt 0.796329 0.213911
vt 0.742748 0.248083
vt 0.679260 0.250886
vt 0.622876 0.221570
vt 0.588704 0.167989
vt 0.585900 0.104500
vt 0.048173 0.620065
vt 0.032567 0.670414
vt 0.021562 0.670065
vt 0.038817 0.614261
vt 0.044227 0.721820
vt 0.034522 0.727022
vt 0.080028 0.760510
vt 0.074224 0.769866
vt 0.130377 0.776115
vt 0.130028 0.787120
vt 0.181783 0.764456
vt 0.186984 0.774160
vt 0.220472 0.728655
vt 0.229829 0.734459
vt 0.236078 0.678306
vt 0.247083 0.678654
vt 0.224418 0.626900
vt 0.234123 0.621699
vt 0.188618 0.588211
vt 0.194422 0.578854
vt 0.138269 0.572605
vt 0.138617 0.561600
vt 0.086862 0.584264
vt 0.081662 0.574559
vt 0.579643 0.103135
vt 0.610480 0.043805
vt 0.582602 0.169935
vt 0.618565 0.226307
vt 0.677895 0.257144
vt 0.744695 0.254185
vt 0.801066 0.218222
vt 0.831904 0.158892
vt 0.828945 0.092092
vt 0.792982 0.035721
vt 0.733652 0.004883
vt 0.666851 0.007842
vn 0.695501 -0.180432 -0.695502
vn 0.695501 -0.180432 -0.695502
vn 0.707107 0.000000 -0.707107
vn 0.707107 0.000000 -0.707107
vn 0.254571 -0.180432 -0.950073
vn 0.254571 -0.180432 -0.950073
vn 0.258819 0.000000 -0.965926
vn 0.258819 0.000000 -0.965926
vn -0.254571 -0.180432 -0.950073
vn -0.254571 -0.180432 -0.950073
vn -0.258819 0.000000 -0.965926
vn -0.258819 0.000000 -0.965926
vn -0.695501 -0.180432 -0.695501
vn -0.695501 -0.180432 -0.695501
vn -0.707107 0.000000 -0.707107
vn -0.707107 0.000000 -0.707107
vn -0.950073 -0.180432 -0.254571
vn -0.950073 -0.180432 -0.254571
vn -0.965926 0.000000 -0.258819
vn -0.965926 0.000000 -0.258819
vn -0.950073 -0.180432 0.254571
vn -0.950073 -0.180432 0.254571
vn -0.965926 0.000000 0.258819
vn -0.965926 0.000000 0.258819
vn -0.695501 -0.180432 0.695502
vn -0.695501 -0.180432 0.695502
vn -0.707107 0.000000 0.707107
vn -0.707107 0.000000 0.707107
vn -0.254571 -0.180432 0.950073
vn -0.254571 -0.180432 0.950073
vn -0.258819 0.000000 0.965926
vn -0.258819 0.000000 0.965926
vn 0.254571 -0.180432 0.950073
vn 0.254571 -0.180432 0.950073
vn 0.258819 0.000000 0.965926
vn 0.258819 0.000000 0.965926
vn 0.695501 -0.180432 0.695501
vn 0.695501 -0.180432 0.695501
vn 0.707107 0.000000 0.707107
vn 0.707107 0.000000 0.707107
vn 0.950073 -0.180432 0.254571
vn 0.950073 -0.180432 0.254571
vn 0.965926 0.000000 0.258819
vn 0.965926 0.000000 0.258819
vn 0.950073 -0.180432 -0.254571
vn 0.950073 -0.180432 -0.254571
vn 0.965926 0.000000 -0.258819
vn 0.965926 0.000000 -0.258819
vn 0.000000 -1.000000 0.000000
vn 0.000000 -1.000000 0.000000
vn 0.000000 -1.000000 0.000000
vn 0.000000 -1.000000 0.000000
vn 0.000000 -1.000000 0.000000
vn 0.000000 -1.000000 0.000000
vn 0.000000 -1.000000 0.000000
vn 0.000000 -1.000000 0.000000
vn 0.000000 -1.000000 0.000000
vn 0.000000 -1.000000 0.000000
vn 0.000000 -1.000000 0.000000
vn 0.000000 -1.000000 0.000000
vn 0.000000 -1.000000 0.000000
vn 0.000000 -1.000000 0.000000
vn 0.000000 -1.000000 0.000000
vn 0.000000 -1.000000 0.000000
vn 0.000000 -1.000000 0.000000
vn 0.000000 -1.000000 0.000000
vn 0.000000 -1.000000 0.000000
vn 0.000000 -1.000000 0.000000
vn 0.000000 -1.000000 0.000000
vn 0.000000 -1.000000 0.000000
vn 0.000000 -1.000000 0.000000
vn 0.000000 -1.000000 0.000000
vn 0.000000 -1.000000 0.000000
vn 0.000000 -1.000000 0.000000
vn 0.000000 -1.000000 0.000000
vn 0.000000 -1.000000 0.000000
vn 0.000000 -1.000000 0.000000
vn 0.000000 -1.000000 0.000000
vn 0.000000 -1.000000 0.000000
vn 0.000000 -1.000000 0.000000
vn 0.000000 -1.000000 0.000000
vn 0.000000 -1.000000 0.000000
vn 0.000000 -1.000000 0.000000
vn 0.000000 -1.000000 0.000000
vn 0.000000 1.000000 0.000000
vn 0.000000 1.000000 0.000000
vn 0.000000 1.000000 0.000000
vn 0.000000 1.000000 0.000000
vn 0.000000 1.000000 0.000000
vn 0.000000 1.000000 0.000000
vn 0.000000 1.000000 0.000000
vn 0.000000 1.000000 0.000000
vn 0.000000 1.000000 0.000000
vn 0.000000 1.000000 0.000000
vn 0.000000 1.000000 0.000000
vn 0.000000 1.000000 0.000000
vn 0.000000 1.000000 0.000000
vn 0.000000 1.000000 0.000000
vn 0.000000 1.000000 0.000000
vn 0.000000 1.000000 0.000000
vn 0.000000 1.000000 0.000000
vn 0.000000 1.000000 0.000000
vn 0.000000 1.000000 0.000000
vn 0.000000 1.000000 0.000000
vn 0.000000 1.000000 0.000000
vn 0.000000 1.000000 0.000000
vn 0.000000 1.000000 0.000000
vn 0.000000 1.000000 0.000000
vn 0.000000 1.000000 0.000000
vn 0.000000 1.000000 0.000000
vn 0.000000 1.000000 0.000000
vn 0.000000 1.000000 0.000000
vn 0.000000 1.000000 0.000000
vn 0.000000 1.000000 0.000000
vn 0.000000 1.000000 0.000000
vn 0.000000 1.000000 0.000000
vn 0.000000 1.000000 0.000000
vn 0.000000 1.000000 0.000000
vn 0.000000 1.000000 0.000000
vn 0.000000 1.000000 0.000000
vn 0.595966 -0.538191 -0.595966
vn 0.595966 -0.538191 -0.595966
vn 0.680035 -0.274053 -0.680035
vn 0.680035 -0.274053 -0.680035
vn 0.218139 -0.538191 -0.814104
vn 0.218139 -0.538191 -0.814104
vn 0.248910 -0.274053 -0.928945
vn 0.248910 -0.274053 -0.928945
vn -0.218139 -0.538191 -0.814104
vn -0.218139 -0.538191 -0.814104
vn -0.248910 -0.274053 -0.928945
vn -0.248910 -0.274053 -0.928945
vn -0.595966 -0.538191 -0.595966
vn -0.595966 -0.538191 -0.595966
vn -0.680035 -0.274053 -0.680035
vn -0.680035 -0.274053 -0.680035
vn -0.814104 -0.538191 -0.218139
vn -0.814104 -0.538191 -0.218139
vn -0.928945 -0.274053 -0.248910
vn -0.928945 -0.274053 -0.248910
vn -0.814104 -0.538191 0.218139
vn -0.814104 -0.538191 0.218139
vn -0.928945 -0.274053 0.248910
vn -0.928945 -0.274053 0.248910
vn -0.595966 -0.538191 0.595966
vn -0.595966 -0.538191 0.595966
vn -0.680035 -0.274053 0.680035
vn -0.680035 -0.274053 0.680035
vn -0.218139 -0.538191 0.814104
vn -0.218139 -0.538191 0.814104
vn -0.248910 -0.274053 0.928945
vn -0.248910 -0.274053 0.928945
vn 0.218139 -0.538191 0.814104
vn 0.218139 -0.538191 0.814104
vn 0.248910 -0.274053 0.928945
vn 0.248910 -0.274053 0.928945
vn 0.595966 -0.538191 0.595966
vn 0.595966 -0.538191 0.595966
vn 0.680035 -0.274053 0.680035
vn 0.680035 -0.274053 0.680035
vn 0.814104 -0.538191 0.218139
vn 0.814104 -0.538191 0.218139
vn 0.928945 -0.274053 0.248910
vn 0.928945 -0.274053 0.248910
vn 0.814104 -0.538191 -0.218139
vn 0.814104 -0.538191 -0.218139
vn 0.928945 -0.274053 -0.248910
vn 0.928945 -0.274053 -0.248910
vn 0.483860 -0.729219 -0.483860
vn 0.483860 -0.729219 -0.483860
vn 0.595966 -0.538191 -0.595966
vn 0.595966 -0.538191 -0.595966
vn 0.177105 -0.729218 -0.660965
vn 0.177105 -0.729218 -0.660965
vn 0.218139 -0.538191 -0.814104
vn 0.218139 -0.538191 -0.814104
vn -0.177105 -0.729218 -0.660965
vn -0.177105 -0.729218 -0.660965
vn -0.218139 -0.538191 -0.814104
vn -0.218139 -0.538191 -0.814104
vn -0.483860 -0.729218 -0.483860
vn -0.483860 -0.729218 -0.483860
vn -0.595966 -0.538191 -0.595966
vn -0.595966 -0.538191 -0.595966
vn -0.660965 -0.729219 -0.177105
vn -0.660965 -0.729219 -0.177105
vn -0.814104 -0.538191 -0.218139
vn -0.814104 -0.538191 -0.218139
vn -0.660965 -0.729219 0.177105
vn -0.660965 -0.729219 0.177105
vn -0.814104 -0.538191 0.218139
vn -0.814104 -0.538191 0.218139
vn -0.483860 -0.729219 0.483860
vn -0.483860 -0.729219 0.483860
vn -0.595966 -0.538191 0.595966
vn -0.595966 -0.538191 0.595966
vn -0.177105 -0.729218 0.660965
vn -0.177105 -0.729218 0.660965
vn -0.218139 -0.538191 0.814104
vn -0.218139 -0.538191 0.814104
vn 0.177105 -0.729218 0.660965
vn 0.177105 -0.729218 0.660965
vn 0.218139 -0.538191 0.814104
vn 0.218139 -0.538191 0.814104
vn 0.483860 -0.729218 0.483860
vn 0.483860 -0.729218 0.483860
vn 0.595966 -0.538191 0.595966
vn 0.595966 -0.538191 0.595966
vn 0.660965 -0.729219 0.177105
vn 0.660965 -0.729219 0.177105
vn 0.814104 -0.538191 0.218139
vn 0.814104 -0.538191 0.218139
vn 0.660965 -0.729219 -0.177105
vn 0.660965 -0.729219 -0.177105
vn 0.814104 -0.538191 -0.218139
vn 0.814104 -0.538191 -0.218139
vn 0.928945 -0.274053 -0.248910
vn 0.928945 -0.274053 -0.248910
vn 0.950073 -0.180432 -0.254571
vn 0.950073 -0.180432 -0.254571
vn 0.928945 -0.274053 0.248910
vn 0.928945 -0.274053 0.248910
vn 0.950073 -0.180432 0.254571
vn 0.950073 -0.180432 0.254571
vn 0.680035 -0.274053 0.680035
vn 0.680035 -0.274053 0.680035
vn 0.695501 -0.180432 0.695501
vn 0.695501 -0.180432 0.695501
vn 0.248910 -0.274053 0.928945
vn 0.248910 -0.274053 0.928945
vn 0.254571 -0.180432 0.950073
vn 0.254571 -0.180432 0.950073
vn -0.248910 -0.274053 0.928945
vn -0.248910 -0.274053 0.928945
vn -0.254571 -0.180432 0.950073
vn -0.254571 -0.180432 0.950073
vn -0.680035 -0.274053 0.680035
vn -0.680035 -0.274053 0.680035
vn -0.695501 -0.180432 0.695502
vn -0.695501 -0.180432 0.695502
vn -0.928945 -0.274053 0.248910
vn -0.928945 -0.274053 0.248910
vn -0.950073 -0.180432 0.254571
vn -0.950073 -0.180432 0.254571
vn -0.928945 -0.274053 -0.248910
vn -0.928945 -0.274053 -0.248910
vn -0.950073 -0.180432 -0.254571
vn -0.950073 -0.180432 -0.254571
vn -0.680035 -0.274053 -0.680035
vn -0.680035 -0.274053 -0.680035
vn -0.695501 -0.180432 -0.695501
vn -0.695501 -0.180432 -0.695501
vn -0.248910 -0.274053 -0.928945
vn -0.248910 -0.274053 -0.928945
vn -0.254571 -0.180432 -0.950073
vn -0.254571 -0.180432 -0.950073
vn 0.248910 -0.274053 -0.928945
vn 0.248910 -0.274053 -0.928945
vn 0.254571 -0.180432 -0.950073
vn 0.254571 -0.180432 -0.950073
vn 0.680035 -0.274053 -0.680035
vn 0.680035 -0.274053 -0.680035
vn 0.695501 -0.180432 -0.695502
vn 0.695501 -0.180432 -0.695502
vn 0.965926 0.000000 -0.258819
vn 0.965926 0.000000 -0.258819
vn 0.965926 0.000000 -0.258819
vn 0.965926 0.000000 -0.258819
vn 0.965926 0.000000 0.258819
vn 0.965926 0.000000 0.258819
vn 0.965926 0.000000 0.258819
vn 0.965926 0.000000 0.258819
vn 0.707107 0.000000 0.707107
vn 0.707107 0.000000 0.707107
vn 0.707107 0.000000 0.707107
vn 0.707107 0.000000 0.707107
vn 0.258819 0.000000 0.965926
vn 0.258819 0.000000 0.965926
vn 0.258819 0.000000 0.965926
vn 0.258819 0.000000 0.965926
vn -0.258819 0.000000 0.965926
vn -0.258819 0.000000 0.965926
vn -0.258819 0.000000 0.965926
vn -0.258819 0.000000 0.965926
vn -0.707107 0.000000 0.707107
vn -0.707107 0.000000 0.707107
vn -0.707107 0.000000 0.707107
vn -0.707107 0.000000 0.707107
vn -0.965926 0.000000 0.258819
vn -0.965926 0.000000 0.258819
vn -0.965926 0.000000 0.258819
vn -0.965926 0.000000 0.258819
vn -0.965926 0.000000 -0.258819
vn -0.965926 0.000000 -0.258819
vn -0.965926 0.000000 -0.258819
vn -0.965926 0.000000 -0.258819
vn -0.707107 0.000000 -0.707107
vn -0.707107 0.000000 -0.707107
vn -0.707107 0.000000 -0.707107
vn -0.707107 0.000000 -0.707107
vn -0.258819 0.000000 -0.965926
vn -0.258819 0.000000 -0.965926
vn -0.258819 0.000000 -0.965926
vn -0.258819 0.000000 -0.965926
vn 0.258819 0.000000 -0.965926
vn 0.258819 0.000000 -0.965926
vn 0.258819 0.000000 -0.965926
vn 0.258819 0.000000 -0.965926
vn 0.707107 0.000000 -0.707107
vn 0.707107 0.000000 -0.707107
vn 0.707107 0.000000 -0.707107
vn 0.707107 0.000000 -0.707107
s off
g botBun:bunHeel_geo
usemtl aiStandardSurface3SG
f 27/1/1 28/2/2 74/3/3 63/4/4
f 28/2/5 29/5/6 73/6/7 74/3/8
f 29/5/9 30/7/10 72/8/11 73/6/12
f 30/7/13 31/9/14 71/10/15 72/8/16
f 31/9/17 32/11/18 70/12/19 71/10/20
f 32/11/21 33/13/22 69/14/23 70/12/24
f 33/13/25 34/15/26 68/16/27 69/14/28
f 34/15/29 35/17/30 67/18/31 68/16/32
f 35/17/33 36/19/34 66/20/35 67/18/36
f 36/19/37 37/21/38 65/22/39 66/20/40
f 37/21/41 38/23/42 64/24/43 65/22/44
f 38/23/45 27/1/46 63/4/47 64/24/48
f 2/25/49 1/26/50 25/27/51
f 3/28/52 2/25/53 25/27/54
f 4/29/55 3/28/56 25/27/57
f 5/30/58 4/29/59 25/27/60
f 6/31/61 5/30/62 25/27/63
f 7/32/64 6/31/65 25/27/66
f 8/33/67 7/32/68 25/27/69
f 9/34/70 8/33/71 25/27/72
f 10/35/73 9/34/74 25/27/75
f 11/36/76 10/35/77 25/27/78
f 12/37/79 11/36/80 25/27/81
f 1/26/82 12/37/83 25/27/84
f 13/38/85 14/39/86 26/40/87
f 14/39/88 15/41/89 26/40/90
f 15/41/91 16/42/92 26/40/93
f 16/42/94 17/43/95 26/40/96
f 17/43/97 18/44/98 26/40/99
f 18/44/100 19/45/101 26/40/102
f 19/45/103 20/46/104 26/40/105
f 20/46/106 21/47/107 26/40/108
f 21/47/109 22/48/110 26/40/111
f 22/48/112 23/49/113 26/40/114
f 23/49/115 24/50/116 26/40/117
f 24/50/118 13/38/119 26/40/120
f 39/51/121 40/52/122 62/53/123 51/54/124
f 40/52/125 41/55/126 61/56/127 62/53/128
f 41/55/129 42/57/130 60/58/131 61/56/132
f 42/57/133 43/59/134 59/60/135 60/58/136
f 43/59/137 44/61/138 58/62/139 59/60/140
f 44/61/141 45/63/142 57/64/143 58/62/144
f 45/63/145 46/65/146 56/66/147 57/64/148
f 46/65/149 47/67/150 55/68/151 56/66/152
f 47/67/153 48/69/154 54/70/155 55/68/156
f 48/69/157 49/71/158 53/72/159 54/70/160
f 49/71/161 50/73/162 52/74/163 53/72/164
f 50/73/165 39/51/166 51/54/167 52/74/168
f 1/26/169 2/25/170 40/52/171 39/51/172
f 2/25/173 3/28/174 41/55/175 40/52/176
f 3/28/177 4/29/178 42/57/179 41/55/180
f 4/29/181 5/30/182 43/59/183 42/57/184
f 5/30/185 6/31/186 44/61/187 43/59/188
f 6/31/189 7/32/190 45/63/191 44/61/192
f 7/32/193 8/33/194 46/65/195 45/63/196
f 8/33/197 9/34/198 47/67/199 46/65/200
f 9/34/201 10/35/202 48/69/203 47/67/204
f 10/35/205 11/36/206 49/71/207 48/69/208
f 11/36/209 12/37/210 50/73/211 49/71/212
f 12/37/213 1/26/214 39/51/215 50/73/216
f 52/74/217 51/54/218 27/1/219 38/23/220
f 53/72/221 52/74/222 38/23/223 37/21/224
f 54/70/225 53/72/226 37/21/227 36/19/228
f 55/68/229 54/70/230 36/19/231 35/17/232
f 56/66/233 55/68/234 35/17/235 34/15/236
f 57/64/237 56/66/238 34/15/239 33/13/240
f 58/62/241 57/64/242 33/13/243 32/11/244
f 59/60/245 58/62/246 32/11/247 31/9/248
f 60/58/249 59/60/250 31/9/251 30/7/252
f 61/56/253 60/58/254 30/7/255 29/5/256
f 62/53/257 61/56/258 29/5/259 28/2/260
f 51/54/261 62/53/262 28/2/263 27/1/264
f 64/75/265 63/76/266 13/38/267 24/50/268
f 65/77/269 64/75/270 24/50/271 23/49/272
f 66/78/273 65/77/274 23/49/275 22/48/276
f 67/79/277 66/78/278 22/48/279 21/47/280
f 68/80/281 67/79/282 21/47/283 20/46/284
f 69/81/285 68/80/286 20/46/287 19/45/288
f 70/82/289 69/81/290 19/45/291 18/44/292
f 71/83/293 70/82/294 18/44/295 17/43/296
f 72/84/297 71/83/298 17/43/299 16/42/300
f 73/85/301 72/84/302 16/42/303 15/41/304
f 74/86/305 73/85/306 15/41/307 14/39/308
f 63/76/309 74/86/310 14/39/311 13/38/312
