# This file uses centimeters as units for non-parametric coordinates.

mtllib oni.mtl
g default
v 0.627784 -0.014813 1.822828
v 1.450740 -0.014813 1.510505
v 2.007280 -0.014813 0.828547
v 0.642359 0.016305 2.277684
v 1.658778 0.016305 1.891940
v 2.346151 0.016305 1.049665
v 0.642359 0.178635 2.277684
v 1.658778 0.178635 1.891940
v 2.346151 0.178635 1.049665
v 0.627784 0.209752 1.822828
v 1.450740 0.209752 1.510505
v 2.007280 0.209752 0.828547
v 0.633900 0.178635 2.194153
v 1.609687 0.178635 1.823829
v 2.269583 0.178635 1.015225
v 0.634350 0.016305 2.198601
v 1.612300 0.016305 1.827455
v 2.273658 0.016305 1.017058
v -0.241079 -0.014813 1.681829
v -0.430759 0.016305 2.103539
v -0.397236 0.016305 2.029008
v -0.430759 0.178635 2.103539
v -0.241079 0.209752 1.681829
v -0.397236 0.178635 2.029008
v -0.923038 0.209752 1.125290
v -1.235360 0.209752 0.302333
v -1.094362 0.209752 -0.566530
v -1.273034 0.178635 1.416166
v -1.658778 0.178635 0.399746
v -1.484633 0.178635 -0.673371
v -1.273034 0.016305 1.416166
v -1.658778 0.016305 0.399746
v -1.484633 0.016305 -0.673371
v -0.923038 -0.014813 1.125290
v -1.235360 -0.014813 0.302333
v -1.094362 -0.014813 -0.566530
v -1.204924 0.016305 1.367075
v -1.575248 0.016305 0.391288
v -1.408065 0.016305 -0.638932
v -1.208549 0.178635 1.369689
v -1.579694 0.178635 0.391738
v -1.412140 0.178635 -0.640765
v -0.177568 -0.055840 -1.183884
v -0.683562 -0.055840 -1.270592
v -1.165120 -0.055840 -1.092686
v -0.177568 0.250779 -1.183884
v -0.683562 0.250779 -1.270592
v -1.165120 0.250779 -1.092686
v 0.395188 0.250779 -0.374237
v 0.308480 0.250779 0.131756
v -0.019608 0.250779 0.526606
v 0.395188 -0.055840 -0.374237
v 0.308480 -0.055840 0.131756
v -0.019608 -0.055840 0.526606
v 0.217282 -0.055840 -0.855795
v 0.013343 -0.005084 -1.524158
v 0.541598 -0.005084 -1.085221
v -0.663608 -0.005084 -1.640162
v -1.307866 -0.005084 -1.402148
v 0.541598 0.200023 -1.085221
v 0.013343 0.200023 -1.524158
v 0.217282 0.250779 -0.855795
v -0.663608 0.200023 -1.640162
v -1.307866 0.200023 -1.402148
v 0.779612 0.200023 -0.440964
v 0.663608 0.200023 0.235988
v 0.224671 0.200023 0.764243
v 0.779612 -0.005084 -0.440964
v 0.663608 -0.005084 0.235988
v 0.224671 -0.005084 0.764243
vt 0.873453 0.081544
vt 0.862316 0.108703
vt 0.860130 0.107817
vt 0.871250 0.080508
vt 0.851265 0.136085
vt 0.848984 0.135376
vt 0.863180 0.176061
vt 0.840249 0.166360
vt 0.908587 0.097017
vt 0.896407 0.123566
vt 0.891836 0.121432
vt 0.903944 0.095071
vt 0.884248 0.150526
vt 0.879883 0.148064
vt 0.867467 0.176948
vt 0.865804 0.172679
vt 0.901710 0.094100
vt 0.889563 0.120372
vt 0.879054 0.116390
vt 0.890738 0.089400
vt 0.877649 0.146728
vt 0.867492 0.143083
vt 0.864115 0.171591
vt 0.857825 0.166518
vt 0.884273 0.086537
vt 0.872495 0.113613
vt 0.860828 0.140737
vt 0.851919 0.168322
vt 0.913183 0.067520
vt 0.915403 0.068399
vt 0.924900 0.040808
vt 0.927263 0.041329
vt 0.928289 0.011104
vt 0.930351 0.009641
vt 0.920156 0.070144
vt 0.932136 0.042346
vt 0.922280 0.004883
vt 0.886092 0.055027
vt 0.896291 0.059619
vt 0.899093 0.028035
vt 0.908318 0.033263
vt 0.922025 0.007650
vt 0.919227 0.016670
vt 0.883913 0.053821
vt 0.897108 0.026402
vt 0.902885 0.062631
vt 0.915274 0.036612
vt 0.922545 0.018303
vt 0.842728 0.166278
vt 0.935354 0.010091
vt 0.540969 0.091657
vt 0.551665 0.069107
vt 0.567125 0.075704
vt 0.557315 0.099327
vt 0.561845 0.047133
vt 0.576459 0.052184
vt 0.567828 0.028399
vt 0.581055 0.025285
vt 0.512237 0.077555
vt 0.523638 0.055549
vt 0.538856 0.063047
vt 0.528526 0.085579
vt 0.535765 0.033263
vt 0.549257 0.040565
vt 0.552278 0.010536
vt 0.562023 0.019830
vt 0.577773 0.016891
vt 0.517414 0.107712
vt 0.502281 0.099975
vt 0.506250 0.129630
vt 0.492198 0.122048
vt 0.494531 0.150677
vt 0.484464 0.144324
vt 0.544845 0.121976
vt 0.529925 0.114213
vt 0.531496 0.144159
vt 0.518021 0.136368
vt 0.514165 0.165702
vt 0.504395 0.156269
vt 0.481768 0.159133
vt 0.476115 0.144987
vt 0.528495 0.027974
vt 0.545467 0.004883
vt 0.483663 0.119357
vt 0.493949 0.096474
vt 0.504163 0.073595
vt 0.515880 0.051021
vn -0.010241 -0.997983 0.062660
vn 0.005198 -0.998059 0.062064
vn 0.000000 -1.000000 -0.000001
vn 0.000000 -1.000000 -0.000003
vn 0.036460 -0.997872 0.054062
vn 0.000000 -1.000000 0.000001
vn 0.056013 -0.997383 0.045712
vn 0.000000 -1.000000 0.000000
vn -0.160184 0.000000 0.987087
vn -0.160184 0.000000 0.987087
vn -0.160184 0.000000 0.987087
vn -0.160184 0.000000 0.987087
vn 0.354820 0.000000 0.934935
vn 0.354820 0.000000 0.934935
vn 0.354820 0.000000 0.934935
vn 0.354820 0.000000 0.934935
vn 0.774751 0.000000 0.632267
vn 0.774751 0.000000 0.632267
vn 0.774751 0.000000 0.632267
vn 0.774751 0.000000 0.632267
vn -0.010063 0.997997 0.062451
vn 0.005215 0.998070 0.061885
vn 0.009507 0.996484 0.083240
vn -0.013454 0.996417 0.083497
vn 0.036251 0.997894 0.053797
vn 0.054032 0.995976 0.071504
vn 0.055841 0.997399 0.045572
vn 0.074696 0.995341 0.060959
vn 0.000000 1.000000 -0.000003
vn 0.000000 1.000000 -0.000002
vn 0.000000 1.000000 -0.000000
vn 0.000000 1.000000 0.000000
vn -0.013560 -0.996459 0.082974
vn 0.009325 -0.996550 0.082469
vn 0.053326 -0.996078 0.070611
vn 0.073714 -0.995463 0.060157
vn 0.578742 0.002232 -0.815507
vn 0.578742 0.002232 -0.815507
vn 0.552924 0.001876 -0.833230
vn 0.551392 0.001855 -0.834244
vn 0.410203 -0.000001 -0.911994
vn 0.410203 -0.000001 -0.911994
vn -0.040088 0.997982 0.049235
vn -0.049885 0.998059 0.037288
vn 0.000000 1.000000 -0.000001
vn 0.000000 1.000000 -0.000003
vn -0.064639 0.997872 0.008589
vn 0.000000 1.000000 -0.000000
vn -0.071365 0.997383 -0.011581
vn 0.000000 1.000000 -0.000000
vn -0.632267 0.000000 0.774750
vn -0.632267 0.000000 0.774750
vn -0.632267 0.000000 0.774750
vn -0.632267 0.000000 0.774750
vn -0.934935 0.000000 0.354820
vn -0.934935 0.000000 0.354820
vn -0.934935 0.000000 0.354820
vn -0.934935 0.000000 0.354820
vn -0.987087 0.000000 -0.160184
vn -0.987087 0.000000 -0.160184
vn -0.987087 0.000000 -0.160184
vn -0.987087 0.000000 -0.160184
vn -0.040051 -0.997997 0.048964
vn -0.049763 -0.998070 0.037157
vn -0.068588 -0.996484 0.048113
vn -0.053547 -0.996417 0.065464
vn -0.064302 -0.997894 0.008570
vn -0.089348 -0.995976 0.007014
vn -0.071145 -0.997399 -0.011545
vn -0.095168 -0.995341 -0.015444
vn 0.000000 -1.000000 0.000003
vn 0.000000 -1.000000 0.000001
vn 0.000000 -1.000000 0.000000
vn 0.000000 -1.000000 0.000000
vn -0.053085 0.996459 0.065197
vn -0.067890 0.996550 0.047739
vn -0.088211 0.996078 0.006949
vn -0.093917 0.995463 -0.015241
vn 0.226193 -0.002232 -0.974080
vn 0.226193 -0.002232 -0.974080
vn 0.256582 -0.001877 -0.966521
vn 0.258358 -0.001856 -0.966048
vn 0.410203 -0.000001 -0.911994
vn 0.410203 -0.000001 -0.911994
vn 0.994912 0.000000 -0.100751
vn 0.994912 0.000000 -0.100751
vn 0.987087 0.000000 0.160183
vn 0.987087 0.000000 0.160183
vn -0.584709 0.000000 -0.811243
vn -0.584709 0.000000 -0.811243
vn -0.774751 0.000000 -0.632267
vn -0.774751 0.000000 -0.632267
vn -0.100751 0.000000 -0.994912
vn -0.100751 0.000000 -0.994912
vn 0.410203 0.000000 -0.911994
vn 0.410203 0.000000 -0.911994
vn 0.811243 0.000000 -0.584709
vn 0.811243 0.000000 -0.584709
vn 0.083803 -0.991365 -0.100856
vn 0.052810 -0.991575 -0.118276
vn 0.055950 -0.991611 -0.116520
vn 0.083803 -0.991365 -0.100856
vn -0.015567 -0.990467 -0.136869
vn -0.008551 -0.990602 -0.136509
vn -0.051202 -0.989025 -0.138594
vn -0.051202 -0.989025 -0.138594
vn 0.083803 0.991365 -0.100856
vn 0.055950 0.991611 -0.116520
vn 0.052810 0.991575 -0.118276
vn 0.083803 0.991365 -0.100856
vn -0.008551 0.990602 -0.136509
vn -0.015567 0.990467 -0.136870
vn -0.051202 0.989025 -0.138596
vn -0.051202 0.989025 -0.138596
vn -0.418245 0.000000 0.908334
vn -0.639089 0.000000 0.769133
vn -0.639089 0.000000 0.769133
vn -0.418245 0.000000 0.908334
vn 0.091957 0.000000 0.995763
vn 0.091957 0.000000 0.995763
vn -0.094617 0.000000 0.995514
vn -0.094617 0.000000 0.995514
vn -0.908052 0.000000 0.418858
vn -0.908052 0.000000 0.418858
vn 0.123004 0.991365 -0.045443
vn 0.129111 0.991575 -0.010418
vn 0.128500 0.991611 -0.013964
vn 0.123004 0.991365 -0.045443
vn 0.123877 0.990467 0.060249
vn 0.125873 0.990602 0.053514
vn 0.113640 0.989025 0.094426
vn 0.113640 0.989025 0.094426
vn 0.123004 -0.991365 -0.045443
vn 0.128500 -0.991611 -0.013964
vn 0.129111 -0.991575 -0.010418
vn 0.123004 -0.991365 -0.045443
vn 0.125873 -0.990602 0.053514
vn 0.123877 -0.990467 0.060249
vn 0.113640 -0.989025 0.094426
vn 0.113640 -0.989025 0.094426
vn -0.995763 0.000000 0.091956
vn -0.938033 0.000000 0.346546
vn -0.938033 0.000000 0.346546
vn -0.995763 0.000000 0.091956
vn -0.908334 0.000000 -0.418246
vn -0.908334 0.000000 -0.418246
vn -0.970218 0.000000 -0.242234
vn -0.970218 0.000000 -0.242234
vn -0.697294 0.000000 0.716785
vn -0.697294 0.000000 0.716785
vn -0.091956 0.000000 -0.995763
vn -0.091956 0.000000 -0.995763
vn -0.346545 0.000000 -0.938033
vn -0.346545 0.000000 -0.938033
vn 0.908334 0.000000 0.418245
vn 0.908334 0.000000 0.418245
vn 0.769134 0.000000 0.639087
vn 0.769134 0.000000 0.639087
vn 0.995763 0.000000 -0.091956
vn 0.995763 0.000000 -0.091956
vn 0.816378 0.000000 -0.577519
vn 0.816378 0.000000 -0.577519
vn 0.418245 0.000000 -0.908334
vn 0.418245 0.000000 -0.908334
s 1
g onions_geo
usemtl aiStandardSurface3SG
f 21/1/1 16/2/2 4/3/3 20/4/4
f 16/2/2 17/5/5 5/6/6 4/3/3
f 17/5/5 18/49/7 6/8/8 5/6/6
s off
f 20/9/9 4/10/10 7/11/11 22/12/12
f 4/10/13 5/13/14 8/14/15 7/11/16
f 5/13/17 6/15/18 9/16/19 8/14/20
s 2
f 24/17/21 13/18/22 10/19/23 23/20/24
f 13/18/22 14/21/25 11/22/26 10/19/23
f 14/21/25 15/23/27 12/24/28 11/22/26
f 22/12/29 7/11/30 13/18/22 24/17/21
f 7/11/30 8/14/31 14/21/25 13/18/22
f 8/14/31 9/16/32 15/23/27 14/21/25
s 1
f 19/25/33 1/26/34 16/2/2 21/1/1
f 1/26/34 2/27/35 17/5/5 16/2/2
f 2/27/35 3/28/36 18/49/7 17/5/5
s 3
f 3/28/37 12/24/38 15/23/39 18/7/40
f 18/7/40 15/23/39 9/16/41 6/15/42
s 4
f 24/17/43 40/29/44 28/30/45 22/12/46
f 40/29/44 41/31/47 29/32/48 28/30/45
f 41/31/47 42/33/49 30/34/50 29/32/48
s off
f 22/12/51 28/30/52 31/35/53 20/9/54
f 28/30/55 29/32/56 32/36/57 31/35/58
f 29/32/59 30/34/60 33/50/61 32/36/62
s 5
f 21/1/63 37/38/64 34/39/65 19/25/66
f 37/38/64 38/40/67 35/41/68 34/39/65
f 38/40/67 39/42/69 36/43/70 35/41/68
f 20/4/71 31/44/72 37/38/64 21/1/63
f 31/44/72 32/45/73 38/40/67 37/38/64
f 32/45/73 33/37/74 39/42/69 38/40/67
s 4
f 23/20/75 25/46/76 40/29/44 24/17/43
f 25/46/76 26/47/77 41/31/47 40/29/44
f 26/47/77 27/48/78 42/33/49 41/31/47
s 6
f 27/48/79 36/43/80 39/42/81 42/33/82
f 42/33/82 39/42/81 33/37/83 30/34/84
s 7
f 26/47/85 35/41/86 36/43/87 27/48/88
f 2/27/89 11/22/90 12/24/91 3/28/92
f 1/26/93 10/19/94 11/22/90 2/27/89
f 1/26/93 19/25/95 23/20/96 10/19/94
f 23/20/96 19/25/95 34/39/97 25/46/98
f 25/46/98 34/39/97 35/41/86 26/47/85
s 9
f 55/51/99 43/52/100 56/53/101 57/54/102
f 43/52/100 44/55/103 58/56/104 56/53/101
f 44/55/103 45/57/105 59/58/106 58/56/104
s 10
f 60/59/107 61/60/108 46/61/109 62/62/110
f 61/60/108 63/63/111 47/64/112 46/61/109
f 63/63/111 64/65/113 48/66/114 47/64/112
s 11
f 43/52/115 55/51/116 62/62/117 46/61/118
f 43/52/115 46/61/118 47/64/119 44/55/120
f 44/55/120 47/64/119 48/66/121 45/57/122
f 45/57/122 48/66/121 64/67/123 59/58/124
s 12
f 62/62/125 49/68/126 65/69/127 60/59/128
f 49/68/126 50/70/129 66/71/130 65/69/127
f 50/70/129 51/72/131 67/73/132 66/71/130
s 13
f 57/54/133 68/74/134 52/75/135 55/51/136
f 68/74/134 69/76/137 53/77/138 52/75/135
f 69/76/137 70/78/139 54/79/140 53/77/138
s 14
f 49/68/141 62/62/142 55/51/143 52/75/144
f 49/68/141 52/75/144 53/77/145 50/70/146
f 50/70/146 53/77/145 54/79/147 51/72/148
f 51/72/148 54/80/147 70/81/149 67/73/150
s 15
f 63/63/151 58/82/152 59/83/153 64/65/154
f 69/84/155 66/71/156 67/73/157 70/81/158
f 68/85/159 65/69/160 66/71/156 69/84/155
f 57/86/161 60/59/162 65/69/160 68/85/159
f 56/87/163 61/60/164 60/59/162 57/86/161
f 56/87/163 58/82/152 63/63/151 61/60/164
