# This file uses centimeters as units for non-parametric coordinates.

mtllib tom.mtl
g default
v 0.000000 0.000000 0.000000
v 0.000000 0.470804 0.000000
v 2.523387 0.392991 -1.456878
v 1.456878 0.392991 -2.523387
v 0.000000 0.392991 -2.913756
v -1.456879 0.392991 -2.523387
v -2.523387 0.392991 -1.456878
v -2.913756 0.392991 0.000000
v -2.523387 0.392991 1.456878
v -1.456879 0.392991 2.523387
v 0.000000 0.392991 2.913756
v 1.456878 0.392991 2.523387
v 2.523387 0.392991 1.456878
v 2.913756 0.392991 0.000000
v 2.523387 0.085334 -1.456878
v 1.456878 0.085334 -2.523387
v 0.000000 0.085334 -2.913756
v -1.456879 0.085334 -2.523387
v -2.523387 0.085334 -1.456878
v -2.913756 0.085334 0.000000
v -2.523387 0.085334 1.456878
v -1.456879 0.085334 2.523387
v 0.000000 0.085334 2.913756
v 1.456878 0.085334 2.523387
v 2.523387 0.085334 1.456878
v 2.913756 0.085334 0.000000
v 2.523387 0.038903 -1.456878
v 2.488508 0.000000 -1.436741
v 1.456878 0.038903 -2.523387
v 1.436740 0.000000 -2.488508
v 0.000000 0.038903 -2.913756
v 0.000000 0.000000 -2.873482
v -1.456879 0.038903 -2.523387
v -1.436741 0.000000 -2.488508
v -2.523387 0.038903 -1.456878
v -2.488509 0.000000 -1.436741
v -2.913756 0.038903 0.000000
v -2.873482 0.000000 0.000000
v -2.523387 0.038903 1.456878
v -2.488509 0.000000 1.436741
v -1.456879 0.038903 2.523387
v -1.436741 0.000000 2.488508
v 0.000000 0.038903 2.913756
v 0.000000 0.000000 2.873482
v 1.456878 0.038903 2.523387
v 1.436740 0.000000 2.488508
v 2.523387 0.038903 1.456878
v 2.488508 0.000000 1.436741
v 2.913756 0.038903 0.000000
v 2.873482 0.000000 0.000000
v 2.488508 0.470804 -1.436741
v 2.523387 0.431901 -1.456878
v 1.436740 0.470804 -2.488508
v 1.456878 0.431901 -2.523387
v 0.000000 0.470804 -2.873482
v 0.000000 0.431901 -2.913756
v -1.436741 0.470804 -2.488508
v -1.456879 0.431901 -2.523387
v -2.488509 0.470804 -1.436741
v -2.523387 0.431901 -1.456878
v -2.873482 0.470804 0.000000
v -2.913756 0.431901 0.000000
v -2.488509 0.470804 1.436741
v -2.523387 0.431901 1.456878
v -1.436741 0.470804 2.488508
v -1.456879 0.431901 2.523387
v 0.000000 0.470804 2.873482
v 0.000000 0.431901 2.913756
v 1.436740 0.470804 2.488508
v 1.456878 0.431901 2.523387
v 2.488508 0.470804 1.436741
v 2.523387 0.431901 1.456878
v 2.873482 0.470804 0.000000
v 2.913756 0.431901 0.000000
v 2.523387 0.239162 -1.456878
v 1.456878 0.239162 -2.523387
v 0.000000 0.239162 -2.913756
v -1.456879 0.239162 -2.523387
v -2.523387 0.239162 -1.456878
v -2.913756 0.239162 0.000000
v -2.523387 0.239162 1.456878
v -1.456879 0.239162 2.523387
v 0.000000 0.239162 2.913756
v 1.456878 0.239162 2.523387
v 2.523387 0.239162 1.456878
v 2.913756 0.239162 0.000000
vt 0.502001 0.562484
vt 0.466114 0.624850
vt 0.432723 0.592820
vt 0.457067 0.551440
vt 0.403853 0.660919
vt 0.390951 0.616483
vt 0.331899 0.661024
vt 0.342943 0.616091
vt 0.269532 0.625138
vt 0.301563 0.591747
vt 0.233464 0.562830
vt 0.277899 0.549974
vt 0.233359 0.490968
vt 0.278292 0.501966
vt 0.269245 0.428556
vt 0.302636 0.460587
vt 0.331506 0.392488
vt 0.344408 0.436922
vt 0.403460 0.392382
vt 0.392417 0.437315
vt 0.465827 0.428268
vt 0.433796 0.461659
vt 0.501895 0.490529
vt 0.457460 0.503432
vt 0.689409 0.635338
vt 0.678686 0.638026
vt 0.661461 0.608024
vt 0.669403 0.600334
vt 0.689233 0.675655
vt 0.678602 0.672621
vt 0.631542 0.590653
vt 0.634576 0.580023
vt 0.596947 0.590570
vt 0.594258 0.579846
vt 0.566944 0.607794
vt 0.559255 0.599852
vt 0.549574 0.637713
vt 0.538943 0.634679
vt 0.549490 0.672308
vt 0.538767 0.674997
vt 0.566715 0.702311
vt 0.558773 0.710001
vt 0.596634 0.719682
vt 0.593600 0.730312
vt 0.631229 0.719765
vt 0.633917 0.730488
vt 0.661232 0.702540
vt 0.668921 0.710483
vt 0.435034 0.545243
vt 0.446140 0.548463
vt 0.424748 0.584778
vt 0.416740 0.576437
vt 0.435281 0.509082
vt 0.446508 0.506318
vt 0.388065 0.605531
vt 0.385301 0.594304
vt 0.345919 0.605163
vt 0.349140 0.594058
vt 0.309605 0.583771
vt 0.317946 0.575764
vt 0.288851 0.547088
vt 0.300079 0.544324
vt 0.289220 0.504943
vt 0.300325 0.508163
vt 0.310612 0.468628
vt 0.318619 0.476969
vt 0.347295 0.447874
vt 0.350059 0.459102
vt 0.389440 0.448243
vt 0.386220 0.459349
vt 0.425755 0.469635
vt 0.417413 0.477643
vt 0.614088 0.655167
vt 0.367680 0.526703
vt 0.678493 0.591214
vt 0.701840 0.631985
vt 0.637887 0.567580
vt 0.590905 0.567415
vt 0.550135 0.590762
vt 0.526501 0.631367
vt 0.526335 0.678350
vt 0.549683 0.719120
vt 0.590289 0.742755
vt 0.637271 0.742920
vt 0.678041 0.719572
vt 0.701675 0.678967
vt 0.709137 0.558972
vt 0.744501 0.619384
vt 0.648305 0.524335
vt 0.578304 0.524755
vt 0.517892 0.560118
vt 0.483255 0.620906
vt 0.483675 0.690996
vt 0.519039 0.751364
vt 0.579872 0.786000
vt 0.649872 0.785580
vt 0.710284 0.750216
vt 0.744921 0.689384
vn 0.707107 0.000000 -0.707107
vn 0.707107 0.000000 -0.707107
vn 0.707107 0.000000 -0.707107
vn 0.866025 0.000000 -0.500000
vn 0.258819 0.000000 -0.965926
vn 0.258819 0.000000 -0.965926
vn 0.000000 0.000000 -1.000000
vn 0.258819 0.000000 -0.965926
vn -0.258819 0.000000 -0.965926
vn -0.258819 0.000000 -0.965926
vn -0.258819 0.000000 -0.965926
vn 0.000000 0.000000 -1.000000
vn -0.707107 0.000000 -0.707106
vn -0.707107 0.000000 -0.707106
vn -0.866026 0.000000 -0.500000
vn -0.707107 0.000000 -0.707106
vn -0.965926 0.000000 -0.258819
vn -0.965926 0.000000 -0.258819
vn -0.965926 0.000000 -0.258819
vn -0.866026 0.000000 -0.500000
vn -0.965926 0.000000 0.258819
vn -0.965926 0.000000 0.258819
vn -0.866026 0.000000 0.500000
vn -0.965926 0.000000 0.258819
vn -0.707107 0.000000 0.707106
vn -0.707107 0.000000 0.707106
vn -0.707107 0.000000 0.707106
vn -0.866026 0.000000 0.500000
vn -0.258819 0.000000 0.965926
vn -0.258819 0.000000 0.965926
vn 0.000000 0.000000 1.000000
vn -0.258819 0.000000 0.965926
vn 0.258819 0.000000 0.965926
vn 0.258819 0.000000 0.965926
vn 0.258819 0.000000 0.965926
vn 0.000000 0.000000 1.000000
vn 0.707107 0.000000 0.707107
vn 0.707107 0.000000 0.707107
vn 0.866025 0.000000 0.500000
vn 0.707107 0.000000 0.707107
vn 0.965926 0.000000 0.258819
vn 0.965926 0.000000 0.258819
vn 0.965926 0.000000 0.258819
vn 0.866025 0.000000 0.500000
vn 0.965926 0.000000 -0.258819
vn 0.965926 0.000000 -0.258819
vn 0.866025 0.000000 -0.500000
vn 0.965926 0.000000 -0.258819
vn 0.601670 -0.719253 -0.347374
vn 0.601670 -0.719253 -0.347374
vn 0.347374 -0.719254 -0.601669
vn 0.347374 -0.719254 -0.601669
vn 0.601670 -0.719253 -0.347374
vn 0.601670 -0.719253 -0.347374
vn 0.694751 -0.719251 0.000000
vn 0.694751 -0.719251 0.000000
vn 0.347374 -0.719254 -0.601669
vn 0.347374 -0.719254 -0.601669
vn 0.000000 -0.719253 -0.694748
vn 0.000000 -0.719253 -0.694748
vn 0.000000 -0.719253 -0.694748
vn 0.000000 -0.719253 -0.694748
vn -0.347374 -0.719253 -0.601670
vn -0.347374 -0.719253 -0.601670
vn -0.347374 -0.719253 -0.601670
vn -0.347374 -0.719253 -0.601670
vn -0.601672 -0.719250 -0.347376
vn -0.601672 -0.719250 -0.347376
vn -0.601672 -0.719250 -0.347376
vn -0.601672 -0.719250 -0.347376
vn -0.694754 -0.719248 0.000000
vn -0.694754 -0.719248 0.000000
vn -0.694754 -0.719248 0.000000
vn -0.694754 -0.719248 0.000000
vn -0.601673 -0.719250 0.347376
vn -0.601672 -0.719250 0.347376
vn -0.601672 -0.719250 0.347376
vn -0.601673 -0.719250 0.347376
vn -0.347374 -0.719253 0.601670
vn -0.347374 -0.719253 0.601670
vn -0.347374 -0.719253 0.601670
vn -0.347374 -0.719253 0.601670
vn 0.000000 -0.719253 0.694748
vn 0.000000 -0.719253 0.694748
vn 0.000000 -0.719253 0.694748
vn 0.000000 -0.719253 0.694748
vn 0.347374 -0.719254 0.601669
vn 0.347374 -0.719254 0.601669
vn 0.347374 -0.719254 0.601669
vn 0.347374 -0.719254 0.601669
vn 0.601670 -0.719253 0.347374
vn 0.601670 -0.719253 0.347374
vn 0.601670 -0.719253 0.347374
vn 0.601670 -0.719253 0.347374
vn 0.694751 -0.719251 0.000000
vn 0.694751 -0.719251 0.000000
vn 0.601668 0.719255 -0.347373
vn 0.601668 0.719255 -0.347373
vn 0.347372 0.719256 -0.601667
vn 0.347372 0.719256 -0.601667
vn 0.601668 0.719255 -0.347373
vn 0.601668 0.719255 -0.347373
vn 0.694749 0.719253 0.000000
vn 0.694749 0.719253 0.000000
vn 0.347372 0.719256 -0.601667
vn 0.347372 0.719256 -0.601667
vn 0.000000 0.719255 -0.694746
vn 0.000000 0.719255 -0.694746
vn 0.000000 0.719255 -0.694746
vn 0.000000 0.719255 -0.694746
vn -0.347373 0.719255 -0.601668
vn -0.347373 0.719255 -0.601668
vn -0.347373 0.719255 -0.601668
vn -0.347373 0.719255 -0.601668
vn -0.601670 0.719252 -0.347374
vn -0.601670 0.719252 -0.347374
vn -0.601670 0.719252 -0.347374
vn -0.601670 0.719252 -0.347374
vn -0.694752 0.719250 0.000000
vn -0.694752 0.719250 0.000000
vn -0.694752 0.719250 0.000000
vn -0.694752 0.719250 0.000000
vn -0.601670 0.719252 0.347374
vn -0.601670 0.719252 0.347374
vn -0.601670 0.719252 0.347374
vn -0.601670 0.719252 0.347374
vn -0.347373 0.719255 0.601668
vn -0.347373 0.719255 0.601668
vn -0.347373 0.719255 0.601668
vn -0.347373 0.719255 0.601668
vn 0.000000 0.719255 0.694746
vn 0.000000 0.719255 0.694746
vn 0.000000 0.719255 0.694746
vn 0.000000 0.719255 0.694746
vn 0.347372 0.719256 0.601667
vn 0.347372 0.719256 0.601667
vn 0.347372 0.719256 0.601667
vn 0.347372 0.719256 0.601667
vn 0.601668 0.719255 0.347373
vn 0.601668 0.719255 0.347373
vn 0.601668 0.719255 0.347373
vn 0.601668 0.719255 0.347373
vn 0.694749 0.719253 0.000000
vn 0.694749 0.719253 0.000000
vn 0.866025 0.000000 -0.500000
vn 0.707107 0.000000 -0.707107
vn 0.707107 0.000000 -0.707107
vn 0.866025 0.000000 -0.500000
vn 0.258819 0.000000 -0.965926
vn 0.000000 0.000000 -1.000000
vn 0.000000 0.000000 -1.000000
vn 0.258819 0.000000 -0.965926
vn 0.000000 0.000000 -1.000000
vn -0.258819 0.000000 -0.965926
vn -0.258819 0.000000 -0.965926
vn 0.000000 0.000000 -1.000000
vn -0.707107 0.000000 -0.707106
vn -0.866026 0.000000 -0.500000
vn -0.866026 0.000000 -0.500000
vn -0.707107 0.000000 -0.707107
vn -0.866026 0.000000 -0.500000
vn -0.965926 0.000000 -0.258819
vn -0.965926 0.000000 -0.258819
vn -0.866026 0.000000 -0.500000
vn -0.965926 0.000000 0.258819
vn -0.866026 0.000000 0.500000
vn -0.866026 0.000000 0.500000
vn -0.965926 0.000000 0.258819
vn -0.866026 0.000000 0.500000
vn -0.707107 0.000000 0.707106
vn -0.707107 0.000000 0.707107
vn -0.866026 0.000000 0.500000
vn -0.258819 0.000000 0.965926
vn 0.000000 0.000000 1.000000
vn 0.000000 0.000000 1.000000
vn -0.258819 0.000000 0.965926
vn 0.000000 0.000000 1.000000
vn 0.258819 0.000000 0.965926
vn 0.258819 0.000000 0.965926
vn 0.000000 0.000000 1.000000
vn 0.707107 0.000000 0.707107
vn 0.866025 0.000000 0.500000
vn 0.866025 0.000000 0.500000
vn 0.707107 0.000000 0.707107
vn 0.866025 0.000000 0.500000
vn 0.965926 0.000000 0.258819
vn 0.965926 0.000000 0.258819
vn 0.866025 0.000000 0.500000
vn 0.965926 0.000000 -0.258819
vn 0.866025 0.000000 -0.500000
vn 0.866025 0.000000 -0.500000
vn 0.965926 0.000000 -0.258819
vn 0.000000 -1.000000 0.000000
vn 0.000000 -1.000000 0.000000
vn 0.000000 -1.000000 0.000000
vn 0.000000 -1.000000 0.000000
vn 0.000000 -1.000000 0.000000
vn 0.000000 -1.000000 0.000000
vn 0.000000 -1.000000 0.000000
vn 0.000000 -1.000000 0.000000
vn 0.000000 -1.000000 0.000000
vn 0.000000 -1.000000 0.000000
vn 0.000000 -1.000000 0.000000
vn 0.000000 -1.000000 0.000000
vn 0.000000 -1.000000 0.000000
vn 0.000000 -1.000000 0.000000
vn 0.000000 -1.000000 0.000000
vn 0.000000 -1.000000 0.000000
vn 0.000000 -1.000000 0.000000
vn 0.000000 -1.000000 0.000000
vn 0.000000 -1.000000 0.000000
vn 0.000000 -1.000000 0.000000
vn 0.000000 -1.000000 0.000000
vn 0.000000 -1.000000 0.000000
vn 0.000000 -1.000000 0.000000
vn 0.000000 -1.000000 0.000000
vn 0.000000 -1.000000 0.000000
vn 0.000000 -1.000000 0.000000
vn 0.000000 -1.000000 0.000000
vn 0.000000 -1.000000 0.000000
vn 0.000000 -1.000000 0.000000
vn 0.000000 -1.000000 0.000000
vn 0.000000 -1.000000 0.000000
vn 0.000000 -1.000000 0.000000
vn 0.000000 -1.000000 0.000000
vn 0.000000 -1.000000 0.000000
vn 0.000000 -1.000000 0.000000
vn 0.000000 -1.000000 0.000000
vn 0.000000 1.000000 0.000000
vn 0.000000 1.000000 0.000000
vn 0.000000 1.000000 0.000000
vn 0.000000 1.000000 0.000000
vn 0.000000 1.000000 0.000000
vn 0.000000 1.000000 0.000000
vn 0.000000 1.000000 0.000000
vn 0.000000 1.000000 0.000000
vn 0.000000 1.000000 0.000000
vn 0.000000 1.000000 0.000000
vn 0.000000 1.000000 0.000000
vn 0.000000 1.000000 0.000000
vn 0.000000 1.000000 0.000000
vn 0.000000 1.000000 0.000000
vn 0.000000 1.000000 0.000000
vn 0.000000 1.000000 0.000000
vn 0.000000 1.000000 0.000000
vn 0.000000 1.000000 0.000000
vn 0.000000 1.000000 0.000000
vn 0.000000 1.000000 0.000000
vn 0.000000 1.000000 0.000000
vn 0.000000 1.000000 0.000000
vn 0.000000 1.000000 0.000000
vn 0.000000 1.000000 0.000000
vn 0.000000 1.000000 0.000000
vn 0.000000 1.000000 0.000000
vn 0.000000 1.000000 0.000000
vn 0.000000 1.000000 0.000000
vn 0.000000 1.000000 0.000000
vn 0.000000 1.000000 0.000000
vn 0.000000 1.000000 0.000000
vn 0.000000 1.000000 0.000000
vn 0.000000 1.000000 0.000000
vn 0.000000 1.000000 0.000000
vn 0.000000 1.000000 0.000000
vn 0.000000 1.000000 0.000000
vn 0.866025 0.000000 -0.500000
vn 0.707107 0.000000 -0.707107
vn 0.707107 0.000000 -0.707107
vn 0.866025 0.000000 -0.500000
vn 0.258819 -0.000002 -0.965926
vn 0.000000 -0.000002 -1.000000
vn 0.000000 0.000000 -1.000000
vn 0.258819 0.000000 -0.965926
vn 0.000000 -0.000002 -1.000000
vn -0.258819 -0.000002 -0.965926
vn -0.258819 0.000000 -0.965926
vn 0.000000 0.000000 -1.000000
vn -0.707107 0.000000 -0.707106
vn -0.866026 0.000000 -0.500000
vn -0.866025 0.000000 -0.500000
vn -0.707107 0.000000 -0.707106
vn -0.866026 0.000000 -0.500000
vn -1.000000 0.000000 0.000000
vn -1.000000 0.000000 0.000000
vn -0.866025 0.000000 -0.500000
vn -1.000000 0.000000 0.000000
vn -0.866026 0.000000 0.500000
vn -0.866025 0.000000 0.500000
vn -1.000000 0.000000 0.000000
vn -0.866026 0.000000 0.500000
vn -0.707107 0.000000 0.707106
vn -0.707107 0.000000 0.707106
vn -0.866025 0.000000 0.500000
vn -0.258819 -0.000002 0.965926
vn 0.000000 -0.000002 1.000000
vn 0.000000 0.000000 1.000000
vn -0.258819 0.000000 0.965926
vn 0.000000 -0.000002 1.000000
vn 0.258819 -0.000002 0.965926
vn 0.258819 0.000000 0.965926
vn 0.000000 0.000000 1.000000
vn 0.707107 0.000000 0.707107
vn 0.866025 0.000000 0.500000
vn 0.866025 0.000000 0.500000
vn 0.707107 0.000000 0.707107
vn 0.866025 0.000000 0.500000
vn 1.000000 0.000000 0.000000
vn 1.000000 0.000000 0.000000
vn 0.866025 0.000000 0.500000
vn 1.000000 0.000000 0.000000
vn 0.866025 0.000000 -0.500000
vn 0.866025 0.000000 -0.500000
vn 1.000000 0.000000 0.000000
vn 0.866025 0.000000 -0.500000
vn 0.707107 0.000000 -0.707107
vn 0.707107 0.000000 -0.707107
vn 0.707107 0.000000 -0.707107
vn 0.258819 0.000000 -0.965926
vn 0.000000 0.000000 -1.000000
vn 0.258819 0.000000 -0.965926
vn 0.258819 0.000000 -0.965926
vn 0.000000 0.000000 -1.000000
vn -0.258819 0.000000 -0.965926
vn -0.258819 0.000000 -0.965926
vn -0.258819 0.000000 -0.965926
vn -0.707107 0.000000 -0.707106
vn -0.866025 0.000000 -0.500000
vn -0.707107 0.000000 -0.707106
vn -0.707107 0.000000 -0.707106
vn -0.866025 0.000000 -0.500000
vn -1.000000 0.000000 0.000000
vn -0.965926 0.000000 -0.258819
vn -0.965926 0.000000 -0.258819
vn -1.000000 0.000000 0.000000
vn -0.866025 0.000000 0.500000
vn -0.965926 0.000000 0.258819
vn -0.965926 0.000000 0.258819
vn -0.866025 0.000000 0.500000
vn -0.707107 0.000000 0.707106
vn -0.707107 0.000000 0.707106
vn -0.707107 0.000000 0.707106
vn -0.258819 0.000000 0.965926
vn 0.000000 0.000000 1.000000
vn -0.258819 0.000000 0.965926
vn -0.258819 0.000000 0.965926
vn 0.000000 0.000000 1.000000
vn 0.258819 0.000000 0.965926
vn 0.258819 0.000000 0.965926
vn 0.258819 0.000000 0.965926
vn 0.707107 0.000000 0.707107
vn 0.866025 0.000000 0.500000
vn 0.707107 0.000000 0.707107
vn 0.707107 0.000000 0.707107
vn 0.866025 0.000000 0.500000
vn 1.000000 0.000000 0.000000
vn 0.965926 0.000000 0.258819
vn 0.965926 0.000000 0.258819
vn 1.000000 0.000000 0.000000
vn 0.866025 0.000000 -0.500000
vn 0.965926 0.000000 -0.258819
vn 0.965926 0.000000 -0.258819
s off
g tomato:tomato_geo
usemtl aiStandardSurface3SG
f 75/1/1 76/2/2 4/3/3 3/4/4
f 76/2/5 77/5/6 5/6/7 4/3/8
f 77/5/9 78/7/10 6/8/11 5/6/12
f 78/7/13 79/9/14 7/10/15 6/8/16
f 79/9/17 80/11/18 8/12/19 7/10/20
f 80/11/21 81/13/22 9/14/23 8/12/24
f 81/13/25 82/15/26 10/16/27 9/14/28
f 82/15/29 83/17/30 11/18/31 10/16/32
f 83/17/33 84/19/34 12/20/35 11/18/36
f 84/19/37 85/21/38 13/22/39 12/20/40
f 85/21/41 86/23/42 14/24/43 13/22/44
f 86/23/45 75/1/46 3/4/47 14/24/48
f 27/25/49 28/26/50 30/27/51 29/28/52
f 28/26/53 27/25/54 49/29/55 50/30/56
f 29/28/57 30/27/58 32/31/59 31/32/60
f 31/32/61 32/31/62 34/33/63 33/34/64
f 33/34/65 34/33/66 36/35/67 35/36/68
f 35/36/69 36/35/70 38/37/71 37/38/72
f 37/38/73 38/37/74 40/39/75 39/40/76
f 39/40/77 40/39/78 42/41/79 41/42/80
f 41/42/81 42/41/82 44/43/83 43/44/84
f 43/44/85 44/43/86 46/45/87 45/46/88
f 45/46/89 46/45/90 48/47/91 47/48/92
f 47/48/93 48/47/94 50/30/95 49/29/96
f 51/49/97 52/50/98 54/51/99 53/52/100
f 52/50/101 51/49/102 73/53/103 74/54/104
f 53/52/105 54/51/106 56/55/107 55/56/108
f 55/56/109 56/55/110 58/57/111 57/58/112
f 57/58/113 58/57/114 60/59/115 59/60/116
f 59/60/117 60/59/118 62/61/119 61/62/120
f 61/62/121 62/61/122 64/63/123 63/64/124
f 63/64/125 64/63/126 66/65/127 65/66/128
f 65/66/129 66/65/130 68/67/131 67/68/132
f 67/68/133 68/67/134 70/69/135 69/70/136
f 69/70/137 70/69/138 72/71/139 71/72/140
f 71/72/141 72/71/142 74/54/143 73/53/144
f 3/4/145 4/3/146 54/51/147 52/50/148
f 4/3/149 5/6/150 56/55/151 54/51/152
f 5/6/153 6/8/154 58/57/155 56/55/156
f 6/8/157 7/10/158 60/59/159 58/57/160
f 7/10/161 8/12/162 62/61/163 60/59/164
f 8/12/165 9/14/166 64/63/167 62/61/168
f 9/14/169 10/16/170 66/65/171 64/63/172
f 10/16/173 11/18/174 68/67/175 66/65/176
f 11/18/177 12/20/178 70/69/179 68/67/180
f 12/20/181 13/22/182 72/71/183 70/69/184
f 13/22/185 14/24/186 74/54/187 72/71/188
f 14/24/189 3/4/190 52/50/191 74/54/192
f 30/27/193 28/26/194 1/73/195
f 32/31/196 30/27/197 1/73/198
f 34/33/199 32/31/200 1/73/201
f 36/35/202 34/33/203 1/73/204
f 38/37/205 36/35/206 1/73/207
f 40/39/208 38/37/209 1/73/210
f 42/41/211 40/39/212 1/73/213
f 44/43/214 42/41/215 1/73/216
f 46/45/217 44/43/218 1/73/219
f 48/47/220 46/45/221 1/73/222
f 50/30/223 48/47/224 1/73/225
f 28/26/226 50/30/227 1/73/228
f 51/49/229 53/52/230 2/74/231
f 53/52/232 55/56/233 2/74/234
f 55/56/235 57/58/236 2/74/237
f 57/58/238 59/60/239 2/74/240
f 59/60/241 61/62/242 2/74/243
f 61/62/244 63/64/245 2/74/246
f 63/64/247 65/66/248 2/74/249
f 65/66/250 67/68/251 2/74/252
f 67/68/253 69/70/254 2/74/255
f 69/70/256 71/72/257 2/74/258
f 71/72/259 73/53/260 2/74/261
f 73/53/262 51/49/263 2/74/264
f 27/25/265 29/28/266 16/75/267 15/76/268
f 29/28/269 31/32/270 17/77/271 16/75/272
f 31/32/273 33/34/274 18/78/275 17/77/276
f 33/34/277 35/36/278 19/79/279 18/78/280
f 35/36/281 37/38/282 20/80/283 19/79/284
f 37/38/285 39/40/286 21/81/287 20/80/288
f 39/40/289 41/42/290 22/82/291 21/81/292
f 41/42/293 43/44/294 23/83/295 22/82/296
f 43/44/297 45/46/298 24/84/299 23/83/300
f 45/46/301 47/48/302 25/85/303 24/84/304
f 47/48/305 49/29/306 26/86/307 25/85/308
f 49/29/309 27/25/310 15/76/311 26/86/312
f 15/76/313 16/75/314 76/87/315 75/88/316
f 16/75/317 17/77/318 77/89/319 76/87/320
f 17/77/321 18/78/322 78/90/323 77/89/324
f 18/78/325 19/79/326 79/91/327 78/90/328
f 19/79/329 20/80/330 80/92/331 79/91/332
f 20/80/333 21/81/334 81/93/335 80/92/336
f 21/81/337 22/82/338 82/94/339 81/93/340
f 22/82/341 23/83/342 83/95/343 82/94/344
f 23/83/345 24/84/346 84/96/347 83/95/348
f 24/84/349 25/85/350 85/97/351 84/96/352
f 25/85/353 26/86/354 86/98/355 85/97/356
f 26/86/357 15/76/358 75/88/359 86/98/360
