# This file uses centimeters as units for non-parametric coordinates.

mtllib floor.mtl
g default
v -12.708988 -0.196379 8.416075
v 12.708988 -0.196379 8.416075
v -12.708988 0.196379 8.416075
v 12.708988 0.196379 8.416075
v -12.708988 0.196379 -8.416075
v 12.708988 0.196379 -8.416075
v -12.708988 -0.196379 -8.416075
v 12.708988 -0.196379 -8.416075
vt -1.092661 -0.414752
vt 2.058719 -0.437325
vt -1.083471 -0.404333
vt -1.056996 -0.438853
vt -1.116385 -0.436317
vt -1.066339 1.471097
vt -1.103682 -0.425450
vt 2.056125 1.479241
vt -1.113026 1.484500
vt 2.068828 1.490109
vt 2.115515 1.476705
vt -1.102003 1.495198
vt 2.124859 -0.433244
vt -1.123136 -0.442934
vt 2.049375 1.472624
vt 2.098384 -0.398725
vt 2.089039 1.511225
vt 2.065468 -0.430708
vt -1.132480 1.467016
vt 2.089195 -0.409143
vt -1.092814 1.505616
vt 2.079851 1.500807
vt -1.125730 1.473632
vt 2.078173 -0.419841
vn 0.000000 0.000000 1.000000
vn 0.000000 0.000000 1.000000
vn 0.000000 0.000000 1.000000
vn 0.000000 0.000000 1.000000
vn 0.000000 1.000000 0.000000
vn 0.000000 1.000000 0.000000
vn 0.000000 1.000000 0.000000
vn 0.000000 1.000000 0.000000
vn 0.000000 0.000000 -1.000000
vn 0.000000 0.000000 -1.000000
vn 0.000000 0.000000 -1.000000
vn 0.000000 0.000000 -1.000000
vn 0.000000 -1.000000 0.000000
vn 0.000000 -1.000000 0.000000
vn 0.000000 -1.000000 0.000000
vn 0.000000 -1.000000 0.000000
vn 1.000000 0.000000 0.000000
vn 1.000000 0.000000 0.000000
vn 1.000000 0.000000 0.000000
vn 1.000000 0.000000 0.000000
vn -1.000000 0.000000 0.000000
vn -1.000000 0.000000 0.000000
vn -1.000000 0.000000 0.000000
vn -1.000000 0.000000 0.000000
s off
g pCube1
usemtl aiStandardSurface2SG
f 1/14/1 2/2/2 4/15/3 3/19/4
f 3/3/5 4/16/6 6/17/7 5/21/8
f 5/5/9 6/18/10 8/8/11 7/23/12
f 7/7/13 8/24/14 2/10/15 1/9/16
f 2/13/17 8/11/18 6/6/19 4/4/20
f 7/12/21 1/1/22 3/20/23 5/22/24
