# This file uses centimeters as units for non-parametric coordinates.

mtllib walls.mtl
g default
v -14.000000 -0.000239 9.500000
v 14.000000 -0.000239 9.500000
v -14.000000 12.990905 9.500000
v 14.000000 12.990905 9.500000
v -13.125002 -0.000239 8.500000
v -13.125002 12.990905 8.500000
v 13.125002 12.990905 8.500000
v 13.125002 -0.000239 8.500000
v -14.000000 0.499761 9.500000
v 14.000000 0.499761 9.500000
v -14.000000 12.990905 -9.500000
v -14.000000 0.499761 -9.500000
v -14.000000 -0.000239 -9.500000
v 14.000000 0.499761 -9.500000
v 14.000000 12.990905 -9.500000
v 14.000000 -0.000239 -9.500000
v 13.125002 12.990905 -8.375000
v 13.125002 -0.000239 -8.375000
v -13.125002 -0.000239 -8.375000
v -13.125002 12.990905 -8.375000
v -14.000000 12.602805 9.500000
v 14.000000 12.602805 9.500000
v 14.000000 12.602811 -9.500000
v -14.000000 12.602811 -9.500000
v -13.125002 12.377346 8.500000
v -13.125002 12.377346 -8.375000
v 13.125002 12.377347 -8.375000
v 13.125002 12.377347 8.500000
v 13.562501 12.990905 -8.937500
v -13.562501 12.990905 -8.937500
v -13.562501 12.990905 9.000000
v 13.562501 12.990905 9.000000
v -14.000000 12.990905 9.160916
v -13.562501 12.990905 8.679869
v -13.125001 12.990905 8.198840
v -13.125001 12.377346 8.198840
v -13.125001 -0.000239 8.198840
v -14.000000 -0.000239 9.160916
v -14.000000 0.499761 9.160916
v -14.000000 12.602805 9.160907
v -13.746266 -0.000239 9.500000
v -12.887126 -0.000239 8.500000
v -12.887124 12.377346 8.500000
v -12.887126 12.990905 8.500000
v -13.316696 12.990905 9.000000
v -13.746266 12.990905 9.500000
v -13.746266 12.602804 9.500000
v -13.746266 0.499761 9.500000
v -14.000000 12.602811 -8.974243
v -14.000000 0.499761 -8.974247
v -14.000000 -0.000239 -8.974247
v -13.125002 -0.000239 -7.908049
v -13.125002 12.377346 -7.908049
v -13.125002 12.990905 -7.908049
v -13.562500 12.990904 -8.441145
v -14.000000 12.990905 -8.974247
v -13.693084 12.990905 -9.500000
v -13.265184 12.990905 -8.937500
v -12.837268 12.990905 -8.375000
v -12.837268 12.377346 -8.375000
v -12.837268 -0.000239 -8.375000
v -13.693084 -0.000239 -9.500000
v -13.693084 0.499761 -9.500000
v -13.693092 12.602811 -9.500000
v 13.625842 12.602811 -9.500002
v 13.625838 0.499761 -9.500000
v 13.625838 -0.000239 -9.500000
v 12.774225 -0.000239 -8.375000
v 12.774225 12.377347 -8.375000
v 12.774225 12.990905 -8.375000
v 13.200035 12.990906 -8.937500
v 13.625838 12.990905 -9.500000
v 14.000000 0.499761 -9.180439
v 14.000000 -0.000239 -9.180439
v 13.125002 -0.000239 -8.091179
v 13.125002 12.377346 -8.091177
v 13.125002 12.990905 -8.091179
v 13.562501 12.990905 -8.635809
v 14.000000 12.990905 -9.180439
v 14.000000 12.602811 -9.180439
v 14.000000 0.499761 8.960589
v 14.000000 -0.000239 8.960589
v 13.125002 -0.000239 8.020918
v 13.125002 12.377347 8.020913
v 13.125002 12.990904 8.020918
v 13.562501 12.990904 8.490754
v 14.000000 12.990904 8.960589
v 14.000000 12.602805 8.960589
v 12.782315 12.377347 8.500000
v 12.782318 -0.000239 8.500000
v 13.634471 -0.000239 9.500000
v 13.634471 0.499761 9.500000
v 13.634471 12.602805 9.500000
v 13.634471 12.990905 9.500000
v 13.208395 12.990905 9.000000
v 12.782318 12.990905 8.500000
v -13.125002 0.794439 8.500000
v -13.125001 0.794439 8.198840
v -13.125002 0.794439 -7.908049
v -13.125002 0.794439 -8.375000
v -12.837268 0.794439 -8.375000
v 12.774225 0.794439 -8.375000
v 13.125002 0.794439 -8.375000
v 13.125002 0.794439 -8.091179
v 13.125002 0.794439 8.020918
v 13.125002 0.794439 8.500000
v 12.782317 0.794439 8.500000
v -12.887126 0.794439 8.500000
v 13.562501 -0.000239 -8.937500
v 13.562501 -0.000239 -8.635809
v 13.562501 -0.000239 8.490754
v 13.562501 -0.000239 9.000000
v 13.208395 -0.000239 9.000000
v -13.316696 -0.000239 9.000000
v -13.562501 -0.000239 9.000000
v -13.562500 -0.000239 8.679878
v -13.562501 -0.000239 -8.441147
v -13.562501 -0.000239 -8.937500
v -13.265176 -0.000239 -8.937500
v 13.200032 -0.000239 -8.937500
vt 0.753058 0.481822
vt 0.729259 0.014766
vt 0.716848 0.272360
vt 0.736632 0.271792
vt 0.229911 0.667041
vt 0.689691 0.758092
vt 0.816808 0.268780
vt 0.852119 0.277953
vt 0.725002 0.767265
vt 0.743940 0.483974
vt 0.729543 0.024659
vt 0.555045 0.580258
vt 0.401793 0.456183
vt 0.434375 0.191237
vt 0.872236 0.368095
vt 0.671289 0.135327
vt 0.662170 0.137479
vt 0.220826 0.995105
vt 0.005139 0.994808
vt 0.229460 0.995117
vt 0.393877 0.779326
vt 0.027517 0.295669
vt 0.084809 0.020980
vt 0.326181 0.524179
vt 0.009399 0.428678
vt 0.523222 0.536061
vt 0.736412 0.264114
vt 0.876136 0.031161
vt 0.011841 0.994818
vt 0.848459 0.033126
vt 0.810805 0.291890
vt 0.024360 0.433188
vt 0.030223 0.282696
vt 0.846116 0.301063
vt 0.547807 0.574398
vt 0.388689 0.786111
vt 0.004883 0.303359
vt 0.136746 0.004883
vt 0.857600 0.259274
vt 0.514685 0.531547
vt 0.134393 0.012689
vt 0.131238 0.024534
vt 0.146199 0.029044
vt 0.448020 0.120035
vt 0.751598 0.475638
vt 0.742480 0.477790
vt 0.521762 0.529877
vt 0.709654 0.015329
vt 0.690011 0.758175
vt 0.811125 0.291973
vt 0.817128 0.268863
vt 0.717614 0.282238
vt 0.717027 0.272354
vt 0.716807 0.264676
vt 0.709937 0.025221
vt 0.443715 0.199154
vt 0.664433 0.147067
vt 0.673551 0.144915
vt 0.329614 0.512793
vt 0.027793 0.421802
vt 0.012832 0.417291
vt 0.438647 0.210614
vt 0.436637 0.200824
vt 0.848000 0.022363
vt 0.005107 0.303406
vt 0.007911 0.291580
vt 0.010617 0.278607
vt 0.065204 0.016891
vt 0.873522 0.381912
vt 0.872540 0.368074
vt 0.848762 0.033104
vt 0.875766 0.031187
vt 0.899543 0.366157
vt 0.900525 0.379995
vt 0.084545 0.020925
vt 0.029958 0.282641
vt 0.027252 0.295614
vt 0.873477 0.004908
vt 0.875003 0.020446
vt 0.220834 0.989587
vt 0.229467 0.989599
vt 0.243335 0.651903
vt 0.389349 0.770118
vt 0.396587 0.775978
vt 0.391570 0.782552
vt 0.005147 0.989291
vt 0.011848 0.989300
vt 0.221265 0.676343
vt 0.229899 0.676355
vt 0.397218 0.461834
vt 0.543232 0.580049
vt 0.550470 0.585909
vt 0.005297 0.684158
vt 0.005578 0.676046
vt 0.012279 0.676055
vt 0.845655 0.300943
vt 0.724541 0.767145
vt 0.729001 0.014774
vt 0.729284 0.024666
vt 0.736154 0.264121
vt 0.736374 0.271799
vt 0.857124 0.259150
vt 0.851658 0.277833
vt 0.697467 0.728160
vt 0.428642 0.114193
vt 0.310236 0.506951
vt 0.061482 0.033648
vt 0.061699 0.033694
vt 0.081040 0.037728
vt 0.249999 0.662841
vt 0.252710 0.659493
vt 0.406592 0.469424
vt 0.732778 0.737333
vt 0.411168 0.463772
vt 0.732317 0.737214
vt 0.697787 0.728243
vt 0.087621 0.009155
vt 0.229750 0.980195
vt 0.230157 0.684468
vt 0.230169 0.675675
vt 0.728666 0.004883
vt 0.728416 0.004890
vt 0.709673 0.005428
vt 0.751191 0.472636
vt 0.749813 0.466798
vt 0.676130 0.154570
vt 0.874756 0.397471
vt 0.875050 0.397450
vt 0.901210 0.395593
vt 0.873219 0.381933
vt 0.899913 0.366131
vt 0.900895 0.379969
vt 0.875373 0.020420
vt 0.235068 0.661738
vt 0.240625 0.655251
vt 0.081305 0.037783
vt 0.025366 0.307632
vt 0.386639 0.773466
vt 0.560005 0.574508
vt 0.005591 0.666732
vt 0.012292 0.666741
vt 0.221278 0.667029
vt 0.673994 0.145518
vt 0.064987 0.016845
vt 0.306803 0.518337
vt 0.010400 0.278561
vt 0.004883 0.442279
vt 0.847697 0.022385
vt 0.007694 0.291535
vt 0.441452 0.189566
vt 0.736357 0.281700
vt 0.005309 0.675365
vt 0.736607 0.281693
vt 0.555141 0.580516
vt 0.004890 0.979886
vt 0.873836 0.004883
vt 0.004883 0.985095
vt 0.025093 0.307575
vt 0.847318 0.006765
vt 0.436511 0.201562
vt 0.847024 0.006786
vt 0.008532 0.430176
vt 0.512330 0.522842
vt 0.821443 0.249880
vt 0.717441 0.282243
vt 0.513707 0.528680
vt 0.516144 0.537731
vt 0.716627 0.264681
vt 0.709758 0.025226
vt 0.709474 0.015334
vt 0.709500 0.005433
vt 0.450234 0.112691
vt 0.430856 0.106850
vt 0.148413 0.021700
vt 0.821112 0.249794
vt 0.133452 0.017190
vt 0.087347 0.009098
vt 0.229743 0.985405
vt 0.901568 0.395568
vt 0.067362 0.004930
vt 0.322427 0.538010
vt 0.067137 0.004883
vt 0.326076 0.525907
vt 0.451937 0.108420
vt 0.684210 0.776771
vt 0.454291 0.100614
vt 0.684541 0.776857
vt 0.720222 0.786126
vt 0.406384 0.450135
vt 0.720698 0.786250
vt 0.401521 0.456143
vt 0.237949 0.658179
vn 0.000000 0.000000 1.000000
vn 0.000000 0.000000 1.000000
vn 0.000000 0.000000 1.000000
vn 0.000000 0.000000 1.000000
vn 0.000000 1.000000 -0.000002
vn 0.000000 1.000000 -0.000001
vn 0.000000 1.000000 -0.000001
vn 0.000000 1.000000 -0.000002
vn 0.000000 0.000000 -1.000000
vn 0.000000 0.000000 -1.000000
vn 0.000000 0.000000 -1.000000
vn 0.000000 0.000000 -1.000000
vn 0.000000 -1.000000 0.000000
vn 0.000000 -1.000000 0.000000
vn 0.000000 -1.000000 0.000000
vn 0.000000 -1.000000 0.000000
vn -1.000000 0.000000 0.000000
vn -1.000000 0.000000 0.000000
vn -1.000000 0.000000 0.000000
vn -1.000000 0.000000 0.000000
vn 0.000000 0.000000 1.000000
vn 0.000000 0.000000 1.000000
vn 0.000000 0.000000 1.000000
vn 0.000000 0.000000 1.000000
vn -1.000000 0.000000 0.000000
vn -1.000000 0.000000 0.000000
vn -1.000000 0.000000 0.000000
vn -1.000000 0.000000 0.000000
vn 0.000001 1.000000 -0.000000
vn -0.000001 1.000000 -0.000000
vn -0.000001 1.000000 -0.000000
vn 0.000001 1.000000 0.000000
vn 1.000000 0.000000 -0.000000
vn 1.000000 0.000000 -0.000000
vn 1.000000 0.000000 0.000000
vn 1.000000 0.000000 0.000000
vn 0.000000 1.000000 0.000000
vn 0.000000 1.000000 0.000000
vn 0.000001 1.000000 -0.000001
vn 0.000001 1.000000 -0.000001
vn 1.000000 0.000000 0.000000
vn 1.000000 0.000000 0.000000
vn 1.000000 0.000000 0.000000
vn 1.000000 0.000000 0.000000
vn -1.000000 0.000000 0.000000
vn -1.000000 0.000000 0.000000
vn -1.000000 0.000001 0.000000
vn -1.000000 0.000000 0.000000
vn 1.000000 0.000000 0.000000
vn 1.000000 0.000000 0.000000
vn 1.000000 0.000000 0.000000
vn 1.000000 0.000000 0.000000
vn 0.000000 -1.000000 0.000000
vn 0.000000 -1.000000 0.000000
vn 0.000000 -1.000000 0.000000
vn 0.000000 -1.000000 0.000000
vn 0.000000 0.000000 1.000000
vn 0.000000 0.000000 1.000000
vn -0.000000 0.000000 1.000000
vn 0.000000 0.000000 1.000000
vn 0.000000 0.000000 -1.000000
vn 0.000000 0.000000 -1.000000
vn 0.000000 0.000000 -1.000000
vn 0.000000 0.000000 -1.000000
vn 0.000000 -0.000000 -1.000000
vn 0.000000 0.000002 -1.000000
vn 0.000000 0.000002 -1.000000
vn 0.000000 -0.000000 -1.000000
vn -0.000000 1.000000 -0.000002
vn 0.000000 1.000000 0.000000
vn -0.000000 1.000000 0.000000
vn -0.000000 1.000000 -0.000002
vn 0.000000 -1.000000 0.000000
vn 0.000000 -1.000000 0.000000
vn 0.000000 -1.000000 0.000000
vn 0.000000 -1.000000 0.000000
vn 0.000000 -1.000000 -0.000000
vn 0.000000 -1.000000 -0.000000
vn 0.000000 -1.000000 -0.000000
vn 0.000000 -1.000000 -0.000000
vn 0.000000 -0.000000 -1.000000
vn 0.000000 -0.000000 -1.000000
vn 1.000000 0.000000 0.000000
vn 1.000000 0.000000 -0.000000
vn -0.000000 0.000000 1.000000
vn 0.000000 0.000000 1.000000
vn -1.000000 0.000000 0.000000
vn -1.000000 -0.000000 0.000000
vn 0.000000 0.000000 -1.000000
vn 0.000000 0.000000 -1.000000
vn -0.000000 1.000000 0.000002
vn 0.000000 1.000000 0.000002
vn 0.000000 1.000000 0.000000
vn 0.000000 1.000000 0.000000
vn 0.000000 1.000000 0.000000
vn 0.000000 1.000000 0.000000
vn 0.000000 1.000000 0.000000
vn 0.000001 1.000000 -0.000002
vn 0.000000 1.000000 0.000000
vn 0.000000 1.000000 0.000000
vn 0.000000 1.000000 0.000000
vn 1.000000 0.000000 0.000003
vn 1.000000 0.000000 0.000003
vn 1.000000 0.000000 0.000003
vn 0.000000 -1.000000 0.000000
vn 0.000000 -1.000000 0.000000
vn -1.000000 0.000000 0.000000
vn -1.000000 0.000000 0.000000
vn -1.000000 0.000000 0.000000
vn -1.000000 0.000000 0.000000
vn 0.000000 0.000000 -1.000000
vn 0.000000 0.000000 -1.000000
vn 0.000000 0.000000 -1.000000
vn 0.000000 0.000000 1.000000
vn 0.000000 0.000000 1.000000
vn 0.000000 0.000000 1.000000
vn 0.000000 0.000000 1.000000
vn -1.000000 0.000000 0.000000
vn -1.000000 0.000000 0.000000
vn -1.000000 0.000000 0.000000
vn 0.000000 -1.000000 0.000000
vn 0.000000 -1.000000 0.000000
vn 1.000000 0.000000 0.000000
vn 1.000000 0.000000 0.000000
vn 1.000000 0.000000 0.000000
vn -0.000002 1.000000 -0.000001
vn -0.000000 1.000000 -0.000001
vn -0.000000 1.000000 0.000002
vn -1.000000 0.000000 0.000000
vn -0.000004 0.000000 1.000000
vn 0.000000 0.000000 1.000000
vn -0.000004 0.000000 1.000000
vn 0.000000 0.000000 -1.000000
vn 0.000000 0.000000 -1.000000
vn 0.000000 0.000000 -1.000000
vn 0.000000 0.000000 -1.000000
vn 0.000000 0.000000 -1.000000
vn 0.000000 0.000000 -1.000000
vn 0.000000 -0.000000 -1.000000
vn 0.000000 0.000000 -1.000000
vn 0.000000 0.000000 -1.000000
vn -0.000004 0.000000 1.000000
vn -0.000004 0.000000 1.000000
vn 0.000000 0.000000 1.000000
vn 0.000000 0.000002 -1.000000
vn 1.000000 0.000000 0.000000
vn 1.000000 0.000000 0.000000
vn 0.000000 -1.000000 0.000000
vn 0.000000 -1.000000 0.000000
vn -1.000000 -0.000000 0.000000
vn -1.000000 -0.000000 0.000000
vn -1.000000 0.000001 0.000000
vn 0.000000 1.000000 0.000000
vn 0.000000 1.000000 -0.000000
vn 0.000001 1.000000 -0.000001
vn 1.000000 0.000000 0.000000
vn 1.000000 0.000000 0.000000
vn 1.000000 0.000000 0.000000
vn 1.000000 0.000000 0.000000
vn 0.000000 -1.000000 0.000000
vn 0.000000 -1.000000 0.000000
vn -1.000000 0.000000 0.000000
vn -1.000000 -0.000000 0.000000
vn -1.000000 -0.000001 0.000000
vn 0.000001 1.000000 -0.000001
vn 0.000002 1.000000 -0.000001
vn 0.000000 1.000000 -0.000000
vn 1.000000 0.000000 0.000000
vn 1.000000 0.000000 0.000000
vn 0.000000 0.000000 -1.000000
vn 0.000000 0.000000 -1.000000
vn 0.000000 0.000000 1.000000
vn 0.000000 0.000000 1.000000
vn 0.000000 0.000000 1.000000
vn 0.000000 0.000000 1.000000
vn 0.000000 0.000000 -1.000000
vn 1.000000 0.000000 0.000000
vn 1.000000 0.000000 0.000003
vn 1.000000 0.000000 -0.000000
vn 1.000000 0.000000 0.000000
vn 0.000000 0.000000 1.000000
vn 0.000000 0.000000 1.000000
vn 0.000000 0.000000 1.000000
vn 0.000000 0.000000 1.000000
vn -1.000000 0.000000 0.000000
vn -1.000000 0.000000 0.000000
vn -1.000000 0.000000 0.000000
vn -1.000000 0.000001 0.000000
vn 0.000000 0.000000 -1.000000
vn 0.000000 0.000000 -1.000000
vn 0.000000 0.000000 -1.000000
vn 0.000000 0.000000 -1.000000
vn 0.000000 -1.000000 0.000000
vn 0.000000 -1.000000 0.000000
vn 0.000000 -1.000000 0.000000
vn 0.000000 -1.000000 0.000000
vn 0.000000 -1.000000 -0.000000
vn 0.000000 -1.000000 -0.000000
vn 0.000000 -1.000000 0.000000
vn 0.000000 -1.000000 0.000000
vn 0.000000 -1.000000 0.000000
vn 0.000000 -1.000000 0.000000
vn 0.000000 -1.000000 0.000000
vn 0.000000 -1.000000 0.000000
s 1
g wall_geo
usemtl initialShadingGroup
f 46/53/1 47/54/2 93/100/3 94/101/4
s 2
f 44/51/5 45/164/6 95/102/7 96/103/8
s 3
f 43/50/9 44/51/10 96/103/11 89/96/12
s 4
f 109/134/13 110/192/14 75/82/15 18/135/16
s 5
f 56/63/17 49/56/18 40/47/19 33/40/20
s 1
f 48/55/21 41/48/22 91/98/23 92/99/24
s 5
f 38/45/25 39/46/26 50/57/27 51/58/28
s 2
f 34/41/29 35/42/30 54/61/31 55/162/32
s 9
f 53/60/33 54/61/34 35/42/35 36/43/36
s 2
f 77/84/37 78/85/38 29/36/39 17/21/40
s 11
f 79/86/41 80/87/42 23/29/43 15/19/44
s 12
f 27/138/45 76/83/46 77/84/47 17/21/48
s 11
f 73/80/49 74/81/50 16/20/51 14/18/52
s 4
f 61/68/53 119/180/54 120/177/55 68/75/56
s 15
f 59/66/57 60/67/58 69/76/59 70/77/60
s 16
f 62/69/61 63/70/62 66/73/63 67/74/64
s 17
f 64/71/65 57/64/66 72/79/67 65/72/68
s 2
f 70/77/69 71/158/70 58/65/71 59/66/72
s 4
f 37/44/73 116/184/74 117/183/75 52/59/76
f 113/188/77 114/187/78 42/49/79 90/97/80
s 1
f 47/54/2 48/55/21 92/99/24 93/100/3
s 11
f 80/87/42 73/80/49 14/18/52 23/29/43
s 17
f 63/70/81 64/71/65 65/72/68 66/73/82
s 5
f 39/46/26 40/47/19 49/56/18 50/57/27
s 9
f 98/105/83 99/106/84 53/60/33 36/43/36
s 15
f 101/108/85 102/109/86 69/76/59 60/67/58
s 12
f 103/110/87 104/111/88 76/83/46 27/138/45
s 3
f 107/115/89 108/116/90 43/50/9 89/96/12
s 2
f 57/64/91 58/159/71 71/78/70 72/79/92
f 33/40/93 34/163/29 55/62/32 56/63/94
f 45/52/6 46/53/95 94/101/96 95/151/7
f 78/155/38 79/86/97 15/19/98 29/157/39
f 31/166/99 34/163/29 33/40/93 3/167/100
f 6/176/101 35/42/30 34/41/29 31/38/99
s 9
f 36/43/36 35/42/35 6/176/102 25/174/103
f 97/173/104 98/105/83 36/43/36 25/174/103
s 4
f 5/172/105 115/186/106 116/184/74 37/44/73
s 5
f 1/1/107 9/10/108 39/46/26 38/45/25
f 9/10/108 21/26/109 40/47/19 39/46/26
f 33/40/20 40/47/19 21/26/109 3/167/110
s 4
f 5/6/105 42/49/79 114/187/78 115/185/106
s 3
f 25/31/111 43/50/9 108/116/90 97/104/112
f 6/7/113 44/51/10 43/50/9 25/31/111
s 2
f 31/175/99 45/164/6 44/51/5 6/7/101
f 3/3/100 46/53/95 45/52/6 31/165/99
s 1
f 21/168/114 47/54/2 46/53/1 3/3/115
f 9/169/116 48/55/21 47/54/2 21/168/114
f 1/170/117 41/48/22 48/55/21 9/169/116
s 5
f 50/57/27 49/56/18 24/150/118 12/17/119
f 51/58/28 50/57/27 12/17/119 13/16/120
s 4
f 52/59/76 117/183/75 118/181/121 19/24/122
s 9
f 26/32/123 53/60/33 99/106/84 100/145/124
f 20/25/125 54/61/34 53/60/33 26/32/123
s 2
f 55/162/32 54/61/31 20/25/126 30/147/127
f 56/63/94 55/62/32 30/160/127 11/14/128
s 5
f 24/150/118 49/56/18 56/63/17 11/14/129
s 2
f 11/148/128 30/161/127 58/159/71 57/64/91
f 59/66/72 58/65/71 30/37/127 20/149/126
s 15
f 26/146/130 60/67/58 59/66/57 20/149/131
f 100/107/132 101/108/85 60/67/58 26/146/130
s 4
f 118/182/121 119/180/54 61/68/53 19/144/122
s 16
f 12/15/133 63/70/62 62/69/61 13/130/134
s 17
f 24/30/135 64/71/65 63/70/81 12/15/136
f 11/148/137 57/64/66 64/71/65 24/30/135
f 66/73/82 65/72/68 23/28/138 14/131/139
s 16
f 67/74/64 66/73/63 14/131/140 16/132/141
s 4
f 68/75/56 120/177/55 109/117/13 18/23/16
s 15
f 102/109/86 103/136/142 27/33/143 69/76/59
f 70/77/60 69/76/59 27/33/143 17/22/144
s 2
f 29/137/39 71/158/70 70/77/69 17/22/40
f 72/79/92 71/78/70 29/156/39 15/133/98
s 17
f 65/72/68 72/79/67 15/133/145 23/28/138
s 11
f 81/88/146 82/89/147 74/81/50 73/80/49
s 4
f 110/192/14 111/191/148 83/90/149 75/82/15
s 12
f 76/83/46 104/111/88 105/112/150 84/91/151
f 77/84/47 76/83/46 84/91/151 85/92/152
s 2
f 85/92/153 86/154/154 78/85/38 77/84/37
f 86/93/154 87/94/155 79/86/97 78/155/38
s 11
f 87/94/156 88/95/157 80/87/42 79/86/41
f 88/95/157 81/88/146 73/80/49 80/87/42
f 2/5/158 82/89/147 81/88/146 10/142/159
s 4
f 111/191/148 112/189/160 8/13/161 83/90/149
s 12
f 84/91/151 105/112/150 106/114/162 28/35/163
f 85/92/152 84/91/151 28/35/163 7/12/164
s 2
f 32/139/165 86/154/154 85/92/153 7/12/166
f 4/140/167 87/94/155 86/93/154 32/152/165
s 11
f 22/141/168 88/95/157 87/94/156 4/140/169
f 10/142/159 81/88/146 88/95/157 22/141/168
s 3
f 106/113/170 107/115/89 89/96/12 28/34/171
s 4
f 112/190/160 113/188/77 90/97/80 8/9/161
s 1
f 92/99/24 91/98/23 2/2/172 10/11/173
f 93/100/3 92/99/24 10/11/173 22/27/174
f 94/101/4 93/100/3 22/27/174 4/4/175
s 2
f 95/151/7 94/101/96 4/4/167 32/153/165
f 96/103/8 95/102/7 32/39/165 7/8/166
s 3
f 89/96/12 96/103/11 7/8/176 28/34/171
s 9
f 37/44/177 98/105/83 97/173/104 5/172/178
f 52/59/179 99/106/84 98/105/83 37/44/177
f 100/145/124 99/106/84 52/59/179 19/24/180
s 15
f 61/68/181 101/108/85 100/107/132 19/144/182
f 68/75/183 102/109/86 101/108/85 61/68/181
f 18/23/184 103/136/142 102/109/86 68/75/183
s 12
f 18/135/185 75/82/186 104/111/88 103/110/87
f 105/112/150 104/111/88 75/82/186 83/90/187
f 106/114/162 105/112/150 83/90/187 8/13/188
s 3
f 90/97/189 107/115/89 106/113/170 8/9/190
f 42/49/191 108/116/90 107/115/89 90/97/189
f 97/104/112 108/116/90 42/49/191 5/6/192
s 4
f 74/81/193 110/118/14 109/178/13 16/20/194
f 82/89/195 111/119/148 110/118/14 74/81/193
f 2/5/196 112/120/160 111/119/148 82/89/195
f 91/98/197 113/122/77 112/121/160 2/2/196
f 41/48/198 114/123/78 113/122/77 91/98/197
f 115/171/106 114/123/78 41/48/198 1/170/199
f 116/125/74 115/124/106 1/1/199 38/45/200
f 117/126/75 116/125/74 38/45/200 51/58/201
f 118/143/121 117/126/75 51/58/201 13/16/202
f 13/130/202 62/69/203 119/128/54 118/127/121
f 120/129/55 119/128/54 62/69/203 67/74/204
f 109/179/13 120/129/55 67/74/204 16/132/194
