# This file uses centimeters as units for non-parametric coordinates.

mtllib walls.mtl
g default
v -36.500000 0.000000 52.000000
v -35.500000 0.000000 52.000000
v -36.500000 38.000000 52.000000
v -35.500000 38.000000 52.000000
v -36.500000 38.000000 -8.000000
v -35.500000 38.000000 -8.000000
v -36.500000 0.000000 -8.000000
v -35.500000 0.000000 -8.000000
vt -0.103332 0.561260
vt -0.032162 0.561260
vt -0.103332 0.632430
vt 0.003205 0.996795
vt -0.103332 0.703600
vt -0.032162 0.703600
vt -0.103332 0.774770
vt -0.032162 0.774770
vt -0.103332 0.845941
vt -0.032162 0.845941
vt 0.996795 0.003205
vt 0.996795 0.996795
vt -0.174503 0.561260
vt -0.174503 0.632430
vt 0.003205 0.003205
vt -0.032162 0.632430
vn 0.000000 0.000000 1.000000
vn 0.000000 0.000000 1.000000
vn 0.000000 0.000000 1.000000
vn 0.000000 0.000000 1.000000
vn 0.000000 1.000000 0.000000
vn 0.000000 1.000000 0.000000
vn 0.000000 1.000000 0.000000
vn 0.000000 1.000000 0.000000
vn 0.000000 0.000000 -1.000000
vn 0.000000 0.000000 -1.000000
vn 0.000000 0.000000 -1.000000
vn 0.000000 0.000000 -1.000000
vn 0.000000 -1.000000 0.000000
vn 0.000000 -1.000000 0.000000
vn 0.000000 -1.000000 0.000000
vn 0.000000 -1.000000 0.000000
vn 1.000000 0.000000 0.000000
vn 1.000000 0.000000 0.000000
vn 1.000000 0.000000 0.000000
vn 1.000000 0.000000 0.000000
vn -1.000000 0.000000 0.000000
vn -1.000000 0.000000 0.000000
vn -1.000000 0.000000 0.000000
vn -1.000000 0.000000 0.000000
s off
g pCube1 group1 group2
usemtl aiStandardSurface2SG
f 1/1/1 2/2/2 4/16/3 3/3/4
f 3/3/5 4/16/6 6/6/7 5/5/8
f 5/5/9 6/6/10 8/8/11 7/7/12
f 7/7/13 8/8/14 2/10/15 1/9/16
f 2/15/17 8/11/18 6/12/19 4/4/20
f 7/13/21 1/1/22 3/3/23 5/14/24
g default
v 36.000000 0.000000 -5.500000
v 36.000000 0.000000 -6.500000
v 36.000000 38.000000 -5.500000
v 36.000000 38.000000 -6.500000
v -36.000000 38.000000 -5.500000
v -36.000000 38.000000 -6.500000
v -36.000000 0.000000 -5.500000
v -36.000000 0.000000 -6.500000
vt 0.994303 0.004520
vt -0.616348 0.730967
vt -0.671739 0.786358
vt -0.616348 0.786358
vt -0.671739 0.841749
vt -0.616348 0.841749
vt -0.671739 0.897140
vt -0.616348 0.897140
vt -0.671739 0.952532
vt -0.616348 0.952532
vt -0.560957 0.730967
vt -0.560957 0.786358
vt 0.005697 0.004520
vt 0.005697 0.995480
vt -0.671739 0.730967
vt 0.994303 0.995480
vn 1.000000 0.000000 0.000000
vn 1.000000 0.000000 0.000000
vn 1.000000 0.000000 0.000000
vn 1.000000 0.000000 0.000000
vn 0.000000 1.000000 0.000000
vn 0.000000 1.000000 0.000000
vn 0.000000 1.000000 0.000000
vn 0.000000 1.000000 0.000000
vn -1.000000 0.000000 -0.000000
vn -1.000000 0.000000 -0.000000
vn -1.000000 0.000000 -0.000000
vn -1.000000 0.000000 -0.000000
vn 0.000000 -1.000000 0.000000
vn 0.000000 -1.000000 0.000000
vn 0.000000 -1.000000 0.000000
vn 0.000000 -1.000000 0.000000
vn 0.000000 0.000000 -1.000000
vn 0.000000 0.000000 -1.000000
vn 0.000000 0.000000 -1.000000
vn 0.000000 0.000000 -1.000000
vn -0.000000 0.000000 1.000000
vn -0.000000 0.000000 1.000000
vn -0.000000 0.000000 1.000000
vn -0.000000 0.000000 1.000000
s off
g group1 group2 pCube3
usemtl aiStandardSurface2SG
f 9/31/25 10/18/26 12/20/27 11/19/28
f 11/19/29 12/20/30 14/22/31 13/21/32
f 13/21/33 14/22/34 16/24/35 15/23/36
f 15/23/37 16/24/38 10/26/39 9/25/40
f 10/18/41 16/27/42 14/28/43 12/20/44
f 15/29/45 9/17/46 11/32/47 13/30/48
g default
v 36.500000 0.000000 -8.000000
v 35.500000 0.000000 -8.000000
v 36.500000 38.000000 -8.000000
v 35.500000 38.000000 -8.000000
v 36.500000 38.000000 52.000000
v 35.500000 38.000000 52.000000
v 36.500000 0.000000 52.000000
v 35.500000 0.000000 52.000000
vt -0.116095 0.473742
vt -0.044925 0.473742
vt -0.116095 0.544912
vt 0.003205 0.996795
vt -0.116095 0.616083
vt -0.044925 0.616083
vt -0.116095 0.687253
vt -0.044925 0.687253
vt -0.116095 0.758423
vt -0.044925 0.758423
vt 0.996795 0.003205
vt 0.996795 0.996795
vt -0.187266 0.473742
vt -0.187266 0.544912
vt 0.003205 0.003205
vt -0.044925 0.544912
vn 0.000000 0.000000 -1.000000
vn 0.000000 0.000000 -1.000000
vn 0.000000 0.000000 -1.000000
vn 0.000000 0.000000 -1.000000
vn 0.000000 1.000000 -0.000000
vn 0.000000 1.000000 -0.000000
vn 0.000000 1.000000 -0.000000
vn 0.000000 1.000000 -0.000000
vn -0.000000 0.000000 1.000000
vn -0.000000 0.000000 1.000000
vn -0.000000 0.000000 1.000000
vn -0.000000 0.000000 1.000000
vn 0.000000 -1.000000 0.000000
vn 0.000000 -1.000000 0.000000
vn 0.000000 -1.000000 0.000000
vn 0.000000 -1.000000 0.000000
vn -1.000000 0.000000 -0.000000
vn -1.000000 0.000000 -0.000000
vn -1.000000 0.000000 -0.000000
vn -1.000000 0.000000 -0.000000
vn 1.000000 0.000000 0.000000
vn 1.000000 0.000000 0.000000
vn 1.000000 0.000000 0.000000
vn 1.000000 0.000000 0.000000
s off
g group1 group2 pCube4
usemtl aiStandardSurface2SG
f 17/33/49 18/34/50 20/48/51 19/35/52
f 19/35/53 20/48/54 22/38/55 21/37/56
f 21/37/57 22/38/58 24/40/59 23/39/60
f 23/39/61 24/40/62 18/42/63 17/41/64
f 18/47/65 24/43/66 22/44/67 20/36/68
f 23/45/69 17/33/70 19/35/71 21/46/72
g default
v -36.000000 0.000000 51.500000
v -36.000000 0.000000 52.500000
v -36.000000 38.000000 51.500000
v -36.000000 38.000000 52.500000
v 36.000000 38.000000 51.500000
v 36.000000 38.000000 52.500000
v 36.000000 0.000000 51.500000
v 36.000000 0.000000 52.500000
vt 0.991677 0.004520
vt -0.590053 0.674143
vt -0.645445 0.729534
vt -0.590053 0.729534
vt -0.645445 0.784925
vt -0.590053 0.784925
vt -0.645445 0.840316
vt -0.590053 0.840316
vt -0.645445 0.895708
vt -0.590053 0.895708
vt -0.534662 0.674143
vt -0.534662 0.729534
vt 0.008323 0.004520
vt 0.008323 0.995480
vt -0.645445 0.674143
vt 0.991677 0.995480
vn -1.000000 0.000000 0.000000
vn -1.000000 0.000000 0.000000
vn -1.000000 0.000000 0.000000
vn -1.000000 0.000000 0.000000
vn 0.000000 1.000000 0.000000
vn 0.000000 1.000000 0.000000
vn 0.000000 1.000000 0.000000
vn 0.000000 1.000000 0.000000
vn 1.000000 0.000000 -0.000000
vn 1.000000 0.000000 -0.000000
vn 1.000000 0.000000 -0.000000
vn 1.000000 0.000000 -0.000000
vn 0.000000 -1.000000 0.000000
vn 0.000000 -1.000000 0.000000
vn 0.000000 -1.000000 0.000000
vn 0.000000 -1.000000 0.000000
vn 0.000000 0.000000 1.000000
vn 0.000000 0.000000 1.000000
vn 0.000000 0.000000 1.000000
vn 0.000000 0.000000 1.000000
vn -0.000000 0.000000 -1.000000
vn -0.000000 0.000000 -1.000000
vn -0.000000 0.000000 -1.000000
vn -0.000000 0.000000 -1.000000
s off
g group1 group2 pCube5
usemtl aiStandardSurface2SG
f 25/63/73 26/50/74 28/52/75 27/51/76
f 27/51/77 28/52/78 30/54/79 29/53/80
f 29/53/81 30/54/82 32/56/83 31/55/84
f 31/55/85 32/56/86 26/58/87 25/57/88
f 26/50/89 32/59/90 30/60/91 28/52/92
f 31/61/93 25/49/94 27/64/95 29/62/96
